<?xml version="1.0" standalone="no"?>
<!DOCTYPE svg PUBLIC "-//W3C//DTD SVG 1.1//EN" "http://www.w3.org/Graphics/SVG/1.1/DTD/svg11.dtd" >
<svg xmlns="http://www.w3.org/2000/svg">
<metadata>
Created by FontForge 20120731 at Thu Oct 20 14:03:27 2016
 By admin
</metadata>
<defs>
<font id="iconfont" horiz-adv-x="1024" >
  <font-face 
    font-family="iconfont"
    font-weight="500"
    font-stretch="normal"
    units-per-em="1024"
    panose-1="2 0 6 3 0 0 0 0 0 0"
    ascent="896"
    descent="-128"
    x-height="792"
    bbox="34 -209 1555 967"
    underline-thickness="50"
    underline-position="-100"
    unicode-range="U+0078-E6E4"
  />
<missing-glyph horiz-adv-x="374" 
d="M34 0v682h272v-682h-272zM68 34h204v614h-204v-614z" />
    <glyph glyph-name=".notdef" horiz-adv-x="374" 
d="M34 0v682h272v-682h-272zM68 34h204v614h-204v-614z" />
    <glyph glyph-name=".null" horiz-adv-x="0" 
 />
    <glyph glyph-name="nonmarkingreturn" horiz-adv-x="341" 
 />
    <glyph glyph-name="x" unicode="x" horiz-adv-x="1001" 
d="M281 543q-27 -1 -53 -1h-83q-18 0 -36.5 -6t-32.5 -18.5t-23 -32t-9 -45.5v-76h912v41q0 16 -0.5 30t-0.5 18q0 13 -5 29t-17 29.5t-31.5 22.5t-49.5 9h-133v-97h-438v97zM955 310v-52q0 -23 0.5 -52t0.5 -58t-10.5 -47.5t-26 -30t-33 -16t-31.5 -4.5q-14 -1 -29.5 -0.5
t-29.5 0.5h-32l-45 128h-439l-44 -128h-29h-34q-20 0 -45 1q-25 0 -41 9.5t-25.5 23t-13.5 29.5t-4 30v167h911zM163 247q-12 0 -21 -8.5t-9 -21.5t9 -21.5t21 -8.5q13 0 22 8.5t9 21.5t-9 21.5t-22 8.5zM316 123q-8 -26 -14 -48q-5 -19 -10.5 -37t-7.5 -25t-3 -15t1 -14.5
t9.5 -10.5t21.5 -4h37h67h81h80h64h36q23 0 34 12t2 38q-5 13 -9.5 30.5t-9.5 34.5q-5 19 -11 39h-368zM336 498v228q0 11 2.5 23t10 21.5t20.5 15.5t34 6h188q31 0 51.5 -14.5t20.5 -52.5v-227h-327z" />
    <glyph glyph-name="uniE600" unicode="&#xe600;" 
d="M512 748q-91 0 -174 -35.5t-143 -95.5t-95.5 -143t-35.5 -174.5t35.5 -174.5t95.5 -143t143 -95.5t174 -35.5t173.5 35.5t142.5 95.5t95.5 143t35.5 174.5t-35.5 174.5t-95.5 143t-142.5 95.5t-173.5 35.5zM588 8q0 -8 -8 -8h-179q-7 0 -7 8v45q0 7 7 7h179q8 0 8 -7v-45
zM668 171l-76 -85q-8 -10 -18 -10h-164q-7 0 -11.5 4.5t-4.5 11.5v94l52 -55q20 -15 38 -14.5t32 13.5l82 76l-37 69q-8 14 -5 29t15 22t26.5 1t22.5 -20l50 -92q13 -25 -2 -44zM727 362l-81 -82q1 0 -8 15l-12 20q-12 17 -28.5 22.5t-38.5 -6.5q-19 -13 -15 -45
q1 -8 10 -25.5t18 -32.5l8 -14l-62 -62q-15 -15 -36 -15t-36 15l-150 150q-15 15 -15 36.5t15 36.5l209 209q15 15 36.5 15t36.5 -15l149 -150q15 -15 15 -36t-15 -36zM584 443l-19 -16q-11 9 -21 13q-10 5 -20 5q-9 0 -16.5 -3.5t-13.5 -9.5q-6 -7 -8 -15t-1 -15
q1 -8 4.5 -16.5t7.5 -15.5l-44 -37q-9 9 -14 16t-9 15l-15 -16q5 -6 10 -13t13 -15l-24 -19l13 -12l24 19q10 -8 20 -13t19.5 -6t18 2t15.5 11t9 16t1 16q-2 8 -5 17q-3 7 -7 16l42 35q4 -4 8 -10q5 -7 8 -12l14 14q-3 5 -8 10q-4 6 -8 10l19 16zM511 324q-1 -3 -5 -7
q-7 -8 -17 -7.5t-23 11.5l38 32q3 -6 5 -11t3 -10q0 -4 -1 -8zM514 384q-6 11 -6.5 19.5t5.5 14.5q7 7 16 7q9 -1 22 -10z" />
    <glyph glyph-name="uniE601" unicode="&#xe601;" 
d="M717 729q-48 10 -87 24.5t-60 28.5t-35 26.5t-19 20.5l-4 7q-12 -10 -32.5 -25t-74.5 -44t-97 -37.5t-92 -11t-76 -0.5l-27 1q10 -243 10 -437q0 -40 22 -81t54.5 -74t77.5 -65.5t81.5 -54t77 -41t54.5 -26t22 -9.5q8 4 22 10t54.5 26.5t77.5 42t81.5 54.5t77 65.5
t54.5 73t22 79.5q0 86 2.5 195.5t5.5 175.5l2 66q-97 -9 -194 10zM853 296q0 -33 -18.5 -67.5t-49 -63t-67 -55.5t-72.5 -47.5t-66.5 -35.5t-48.5 -23l-19 -8q-7 2 -19.5 7.5t-48 22.5t-67.5 35.5t-71.5 46.5t-67.5 55.5t-47.5 63t-19.5 69.5q0 47 -1 102.5t-2.5 102
t-2.5 85.5t-2 62.5t-1 22.5q86 -8 171 8q38 8 82.5 31t70.5 42l26 19q1 -2 4 -6.5t16 -17t31 -23.5t52 -23.5t76 -21.5q38 -7 80.5 -9t66.5 -1l24 2q-9 -209 -9 -375zM428 552l-71 25q-9 -23 -23 -49q-11 -23 -29.5 -51t-44.5 -56l17 -14q8 -7 12 -10l6 -4q3 2 8 7q4 3 8 7
v-185h70v256q13 16 22 29q9 14 14 24q7 12 11 21zM672 329q-18 15 -30 33h94v32h-125v43h55q28 0 37.5 12.5t9.5 35.5v33q0 20 -7 31t-29.5 15.5t-64 1.5t-110.5 -11v8h-69v-133h69v7h36v-43h-129v-32h66q-2 -9 -5.5 -22t-11.5 -28t-20 -30.5t-29 -29.5l27 -25q24 17 42 34
t30 32t19 28t11 24v-122h73v122q5 -10 12.5 -23.5t19.5 -28.5q12 -14 27.5 -29.5t36.5 -31.5l41 48q-20 10 -40 23q-18 11 -36 26zM502 467v59q17 3 35 5q15 2 34.5 4t39.5 2q21 0 27 -7t6 -18v-20q-1 -7 -4 -13q-3 -4 -9.5 -8t-19.5 -4h-109z" />
    <glyph glyph-name="uniE602" unicode="&#xe602;" horiz-adv-x="1031" 
d="M515 381q-11 0 -34 6l-399 169q-17 6 -17 22t20 25l399 169q13 6 32.5 6t32.5 -6l399 -169q20 -9 20 -24.5t-20 -25.5l-399 -169q-4 0 -15 -1.5t-19 -1.5zM99 578l393 -166q9 -4 23 -4t22 4l397 166l-397 169q-8 4 -22 4t-23 -4zM515 46q-11 0 -34 6l-399 169l11 25
l399 -169q9 -4 23 -4t22 4l400 169l11 -25l-399 -169q-9 -6 -34 -6zM515 139q-11 0 -34 6l-399 169l11 25l399 -169q9 -4 23 -4t22 4l400 169l11 -25l-399 -169q-17 -6 -34 -6zM515 235q-11 0 -34 6l-399 168l11 26l399 -169q9 -4 23 -4t22 4l400 169l11 -26l-399 -168
q-17 -6 -34 -6z" />
    <glyph glyph-name="uniE603" unicode="&#xe603;" 
d="M512 -66q-91 0 -174 35.5t-143 95.5t-95.5 143t-35.5 174t35.5 174t95.5 143t143 95t174 35t174 -35t142.5 -95t95 -143t35.5 -174t-35.5 -174t-95 -143t-142.5 -95.5t-174 -35.5zM511.5 745q-98.5 0 -182.5 -48.5t-132.5 -132t-48.5 -182.5q0 -140 94 -244
q26 13 47 15.5t56 17.5q31 12 53 22t28 13l6 4v66q-3 3 -7.5 8t-13.5 26t-13 49q-11 -3 -16.5 8.5t-6.5 26.5q0 2 -1 11.5t-1.5 16t0 14.5t4 12t8.5 3q-7 55 -5 73q4 41 40.5 74t91.5 35q63 -2 95.5 -33.5t36.5 -75.5q2 -16 -6 -73q6 1 9 -3t3.5 -12t0.5 -14.5t-1 -16
t-1 -11.5q-1 -15 -6.5 -26.5t-16.5 -7.5q-4 -28 -12.5 -49t-15.5 -28l-7 -6v-67q17 -9 88 -38q34 -14 55 -17.5t47 -16.5q94 104 94 244q0 99 -48.5 182.5t-132.5 132t-182.5 48.5z" />
    <glyph glyph-name="uniE604" unicode="&#xe604;" 
d="M619 230q-25 9 -38.5 21.5t-20 26t-7.5 27t2 26.5q3 22 14 31q9 8 27 22q7 6 12.5 17t10.5 22l8 28q9 3 17 10q7 6 13 17q5 10 7 29q2 14 -0.5 23.5t-5.5 15.5q-4 7 -10 11q0 37 -4 71q-5 31 -15 64q-10 34 -33 62q-9 12 -26.5 24t-38.5 22q-22 9 -47 15t-50 6
q-20 0 -41.5 -3t-42.5 -12q-22 -9 -42.5 -24t-36.5 -40q-18 -25 -27.5 -57.5t-12.5 -59.5q-5 -33 -4 -67q-8 -8 -11 -18q-4 -9 -5 -21t4 -27q4 -15 10.5 -23t11.5 -12q6 -4 12 -6q5 -16 9 -28q4 -11 9.5 -22t12.5 -17q15 -13 27 -24q12 -12 13 -32q1 -13 1 -25
q0 -11 -4 -21.5t-14 -21t-28 -22.5q-23 -14 -53.5 -22t-59.5 -18q-28 -10 -49.5 -27t-25.5 -49q-9 -57 -4 -93t13 -43q6 -4 26 -8q19 -5 49 -9q28 -4 63.5 -8t71.5 -7q38 -3 69 -5q33 -2 59 -2t60 2q31 2 71 5q39 3 75 7q21 3 39 6v243q-6 2 -13 4q-25 7 -47 16zM750 457
h184q15 0 25.5 10.5t10.5 25.5t-10.5 26t-25.5 11h-184q-15 0 -26 -11t-11 -26t11 -25.5t26 -10.5zM934 311h-184q-15 0 -26 -11t-11 -26t11 -25.5t26 -10.5h184q15 0 25.5 10.5t10.5 25.5t-10.5 26t-25.5 11zM934 92h-184q-15 0 -26 -11t-11 -26t11 -25.5t26 -10.5h184
q15 0 25.5 10.5t10.5 25.5t-10.5 26t-25.5 11z" />
    <glyph glyph-name="uniE605" unicode="&#xe605;" 
d="M850 797l-7 12h-651l-8 -10q-59 -75 -92 -142t-38.5 -116.5t-1 -82t16.5 -58.5q22 -43 62 -69.5t86 -26.5h5q91 4 155 69q57 -64 142 -64q87 0 144 68q86 -70 163 -70q66 0 112 53q23 27 30.5 65.5t3 76.5t-18.5 82t-29 77t-33.5 67.5t-26.5 47.5t-14 21zM899 393
q-30 -35 -73 -35q-29 0 -63.5 16.5t-51.5 29.5t-31 26v174l1 1q0 11 -7.5 18.5t-18.5 7.5t-18.5 -7.5t-7.5 -18.5v-189q-41 -57 -110 -57q-32 0 -58.5 14t-37.5 25.5t-19 23.5v183q0 11 -7.5 18.5t-18 7.5t-18 -7.5t-7.5 -18.5v-182q-10 -13 -23 -25t-44 -26.5t-66 -16.5h-3
q-28 0 -57 17.5t-45 50.5q-10 20 -13 46.5t2.5 67.5t34 98.5t78.5 122.5h598q18 -29 36 -62.5t36.5 -78.5t28 -85t6.5 -78t-23 -61zM852.5 275q-10.5 0 -18 -7.5t-7.5 -17.5v0v-186q0 -21 -15 -36t-37 -15h-220h-307q-22 0 -37 15t-15 36v186q0 10 -7.5 17.5t-18 7.5
t-18 -7.5t-7.5 -17.5v-191q0 -40 28.5 -69t68.5 -29h539q40 0 68.5 29t28.5 69v191q0 10 -7.5 17.5t-18 7.5z" />
    <glyph glyph-name="uniE606" unicode="&#xe606;" horiz-adv-x="1025" 
d="M927 559q-34 81 -96.5 143t-142.5 96q-84 36 -175.5 36t-174.5 -36q-81 -34 -143.5 -96t-96.5 -143q-35 -84 -35 -175t35 -175q34 -81 96.5 -143t143.5 -96q83 -36 174.5 -36t175.5 36q80 34 142.5 96t96.5 143q35 84 35 175t-35 175zM513 -12q-112 0 -207 59l117 60l2 3
q16 17 21 50q4 25 4 49v12l-10 6q-7 5 -9 9q-1 4 0 13l1 9l-49 74l-2 1q-8 9 -8 19q0 8 10 22l7 9l-4 11q-4 14 -7 32t-2.5 42.5t7.5 39.5q12 22 32.5 38t42.5 22.5t33.5 9t19.5 3.5q11 0 26 -2.5t44.5 -14.5t47.5 -32q13 -15 17 -45t2 -53t-6 -42l-3 -12l9 -9
q12 -11 12 -24q0 -9 -11 -20l-2 -1l-41 -56l-5 -7v-8q1 -12 -2 -19q-2 -4 -8 -8l-11 -6l-1 -12q0 -18 3 -42q4 -26 9 -45l3 -10l128 -64q-97 -61 -210 -61zM764 78l-131 66q-3 15 -5 31q-2 11 -2 23q10 9 15 19q6 14 6 32l35 47q24 24 24 51q0 24 -17 47q5 27 6 54
q1 76 -32 114q-15 17 -36.5 30t-39.5 19.5t-37 10t-26.5 4t-11.5 0.5h-1h-1q-6 0 -14.5 -1.5t-31 -7.5t-42.5 -15t-42 -28.5t-35 -44.5q-20 -36 -12 -97q2 -20 8 -41q-13 -21 -13 -39q0 -25 19 -48l39 -57q-1 -15 3 -26q4 -12 16 -23q-1 -17 -3 -32q-2 -14 -8 -24l-129 -66
q-69 55 -108.5 135.5t-39.5 172.5q0 107 53 198.5t144 144.5t198.5 53t198.5 -53t144 -144.5t53 -198.5q0 -91 -38.5 -170.5t-105.5 -135.5z" />
    <glyph glyph-name="uniE607" unicode="&#xe607;" horiz-adv-x="1060" 
d="M963 392q-10 0 -17 -7t-7 -17v-433q0 -20 -14.5 -34t-34.5 -14h-731q-20 0 -34 14t-14 34v706q0 20 14 34t34 14h471q10 0 17 7.5t7 17.5t-7 17t-17 7h-475q-39 0 -66 -27t-27 -66v-714q0 -39 27 -66t66 -27h740q38 0 65.5 27t27.5 66v437q0 10 -7.5 17t-17.5 7zM511 80
l463 463q21 21 19 52t-25 54l-44 44q-23 23 -53.5 24.5t-51.5 -19.5l-464 -463zM853 664q8 8 20 7t20 -9l44 -44q9 -9 9.5 -20.5t-7.5 -19.5l-51 -52l-85 87zM852 490l-345 -345l-86 86l345 346zM355 234l-47 -175q-4 -12 5 -21t21 -6l175 48l-36 36l-113 -31l31 113z
M355 234z" />
    <glyph glyph-name="uniE608" unicode="&#xe608;" 
d="M913 229h-24v1v2v53q0 51 -36.5 87.5t-87.5 36.5t-87 -36.5t-36 -87.5v-53v-2v-1h-14q-17 0 -29 -12t-12 -29v-196q0 -17 12 -29t29 -12h285q17 0 29 12t12 29v196q0 17 -12 29t-29 12zM705 232v53q0 25 17.5 43t42.5 18t43 -18t18 -43v-53v-2v-1h-121v1v2zM923 -8
q0 -10 -10 -10h-285q-10 0 -10 10v196q0 10 10 10h285q10 0 10 -10v-196zM771 100q-10 0 -17 -7t-7 -16v-46h47v46q0 9 -7 16t-16 7zM638 281q-22 8 -45 13q-4 2 -7 2h-9q-3 0 -7 -2q-6 -3 -18 -7q-4 -2 -15 -5q-1 -1 -3.5 -1.5t-3.5 -0.5q-5 -2 -13 -3q-5 -2 -12 -3
q-9 -1 -11 -1q-13 -1 -25 -1h-5h-4q-54 2 -92 22q-3 2 -7 2h-6h-4q-139 -33 -246 -136q-4 -5 -4 -11v-56q0 -18 5 -79.5t10 -61.5h460q-29 57 -29 122q0 60 24.5 114t66.5 93zM295 541q0 -12 8.5 -21t19.5 -9h1q5 -62 47 -110.5t98 -48.5q6 0 13 1l5 1q3 0 7 1q2 0 3.5 0.5
t2.5 1.5q2 0 6 2q5 1 7 2l3 2q40 18 67.5 59.5t30.5 88.5h1q11 0 19.5 9t8.5 21q0 20 -17 28q9 28 9 57q0 60 -34 106.5t-87 62.5q-1 0 -2 1h-1q-7 2 -16 4h-5q-12 2 -21 2q-69 0 -117.5 -51.5t-48.5 -124.5q0 -30 9 -57q-17 -8 -17 -28zM295 541z" />
    <glyph glyph-name="uniE609" unicode="&#xe609;" 
d="M714 578q-1 2 -1 4q0 5 -13 5h-339q-13 0 -13 -5q0 -2 -1 -4l-49 -170q-1 -1 -1 -2q1 -2 1 -5q0 -22 13 -37.5t31 -15.5t31 15.5t13 37.5q0 7 4.5 11.5t11 4.5t11 -4.5t4.5 -11.5q0 -22 13.5 -37.5t32.5 -15.5t32.5 15.5t13.5 37.5q0 7 4.5 11.5t10.5 4.5t10.5 -4.5
t4.5 -11.5q0 -21 13.5 -36.5t32.5 -15.5t32.5 15.5t13.5 36.5q0 7 4.5 11.5t10.5 4.5q10 0 14 -9q9 -4 9 -14q0 -20 14 -34t33 -14t32.5 14t13.5 34q0 5 3 9l-2 4zM649 356q-23 -37 -64 -37q-38 0 -61 32q-23 -34 -61 -34t-61 34q-18 -27 -48 -32q5 -5 5 -12v-158q0 -2 1 -4
l47 62h243l51 -61q1 1 1 3v158q0 5 3 9q-38 6 -56 40zM504 299l-2 2h3zM527 828q-91 0 -174 -35.5t-143 -95.5t-95 -143t-35 -174t35 -173.5t95 -142.5t143 -95.5t174 -35.5t174 35.5t142.5 95.5t95 142.5t35.5 173.5t-35.5 174t-95 143t-142.5 95.5t-174 35.5zM729 317
q4 -4 4 -10v-158q0 -17 -11.5 -28.5t-27.5 -11.5h-327q-16 0 -27 11.5t-11 28.5v158q0 7 4 11q-28 4 -47 27.5t-19 55.5q0 4 1 7q-1 5 0 9l49 167q1 15 13.5 24t30.5 9h339q18 0 30 -9t14 -24l48 -168q3 -7 -2 -13q3 -4 3 -9q0 -29 -18 -50.5t-46 -26.5z" />
    <glyph glyph-name="uniE60A" unicode="&#xe60a;" horiz-adv-x="1030" 
d="M499 692v-616l-255 156h-99q-10 0 -17.5 7.5t-7.5 17.5v254q0 10 7.5 17.5t17.5 7.5h99zM508 747l-276 -169h-87q-28 0 -48 -19.5t-20 -47.5v-254q0 -28 20 -47.5t48 -19.5h87l276 -169q14 0 24 10t10 24v658q0 14 -10 24t-24 10zM815 46q-9 0 -15 6t-6 14.5t6 15.5
q82 82 111 192t0 220t-111 192q-6 7 -6 15.5t6 14.5t15 6t15 -6q90 -90 122 -211t0 -242t-122 -211q-6 -6 -15 -6zM688 209q-9 0 -15 6.5t-6 15t6 14.5q57 58 57 139t-57 139q-6 6 -6 14.5t6 15t15 6.5t15 -7q70 -69 70 -168t-70 -168q-6 -7 -15 -7z" />
    <glyph glyph-name="uniE60B" unicode="&#xe60b;" 
d="M512 735q-91 0 -174 -35.5t-143 -95.5t-95 -143t-35 -174t35 -173.5t95 -142.5t143 -95.5t174 -35.5t173.5 35.5t142.5 95.5t95.5 142.5t35.5 173.5t-35.5 174t-95.5 143t-142.5 95.5t-173.5 35.5zM512 15q-80 44 -140.5 95t-93 97.5t-48.5 85.5t-16 69q0 103 43 150.5
t106 47.5q51 0 83.5 -18.5t65.5 -55.5q32 37 64.5 55.5t83.5 18.5q64 0 106.5 -47.5t42.5 -150.5q0 -30 -16 -69t-48.5 -85.5t-93 -97.5t-139.5 -95z" />
    <glyph glyph-name="uniE60C" unicode="&#xe60c;" 
d="M716 284h55v-54h-55v54zM896 505l-240 59q-9 2 -18 1v192q22 18 18 45q-3 20 -19.5 31.5t-35.5 8.5l-458 -71q-20 -3 -31.5 -19t-8.5 -36q3 -18 17 -30v-719q0 -13 9 -21.5t21 -8.5h729q13 0 21.5 8.5t8.5 21.5v450q18 11 22.5 30.5t-6 36.5t-29.5 21zM578 501v-504h-152
v151h-94v-151h-151v682l397 62v-240zM771 -3v77h-55v-77h-78v466l211 -47v-419h-78zM716 382h55v-54h-55v54zM716 186h55v-54h-55v54zM332 655h94v-91h-94v91zM332 490h94v-91h-94v91zM332 325h94v-91h-94v91z" />
    <glyph glyph-name="uniE60D" unicode="&#xe60d;" 
d="M529 807l186 -153v77h134v-184l110 -117l-29 -32l-148 161l25 11l1 120h-52v-108l-39 16l-190 153l-405 -353l-26 32zM205 -5h226l1 230l190 1l1 -231h226v355h-41v-315h-145v232h-273v-232h-144v315h-41v-355z" />
    <glyph glyph-name="uniE60E" unicode="&#xe60e;" 
d="M808 345q-11 0 -18.5 -8t-7.5 -19v-3l-124 -17l-18 105q9 2 15.5 9t6.5 17q0 11 -7.5 18.5t-18.5 7.5t-19 -7.5t-8 -18.5q0 -10 7 -18l-102 -93l-102 93q7 8 7 18q0 11 -7.5 18.5t-18.5 7.5t-19 -7.5t-8 -18.5q0 -10 6.5 -17t16.5 -9l-18 -105l-129 17v5q0 11 -7.5 18.5
t-18.5 7.5t-19 -7.5t-8 -18.5t8 -18.5t19 -7.5t19 8l121 -157q5 3 16 7.5t45 14t69 12t86.5 -5t100.5 -28.5l118 154q8 -7 17 -7q11 0 19 8t8 18.5t-8 18.5t-19 8zM512 747q-91 0 -173.5 -35.5t-142.5 -95.5t-95.5 -142.5t-35.5 -173.5t35.5 -173.5t95.5 -142.5t142.5 -95.5
t173.5 -35.5t173.5 35.5t142.5 95.5t95.5 142.5t35.5 173.5t-35.5 173.5t-95.5 142.5t-142.5 95.5t-173.5 35.5zM512 -100q-108 0 -200.5 53.5t-146 146t-53.5 200.5t53.5 200.5t146 146t200.5 53.5t200.5 -53.5t146 -146t53.5 -200.5t-53.5 -200.5t-146 -146t-200.5 -53.5z
" />
    <glyph glyph-name="uniE60F" unicode="&#xe60f;" 
d="M754 748h-125q-7 0 -11.5 -5t-4.5 -11q0 -8 -4 -15q-11 -17 -39 -18h-4h-91h-88q-21 1 -33.5 9t-13.5 23v1q0 6 -4.5 11t-11.5 5h-125q-7 0 -12.5 -8t-5.5 -19v-669q0 -11 5.5 -18.5t12.5 -7.5h256q6 0 10.5 4.5t5.5 10.5v1q0 6 -5 11t-11 5h-218q-9 0 -16 5.5t-7 14.5
v577q0 25 12 25h493q8 0 14 -6t6 -16l1 -364q0 -6 4 -10.5t11 -4.5h2q7 0 11.5 4.5t4.5 10.5v427q0 11 -6 19t-13 8zM592 760q-12 13 -42 13q-28 -1 -30 21q-1 14 -16 24q-21 14 -44.5 6.5t-27.5 -30.5q-4 -22 -30 -21h-11q-18 -2 -28.5 -11t-9.5 -22q0 -14 11.5 -22
t30.5 -8h80h81h4q26 1 35 17q10 17 -3 33zM475 769q-20 0 -19 20q0 10 5.5 15t15.5 5q19 -1 20 -21q-3 -20 -22 -19zM673 568h-288q-5 0 -9 4t-4 9v5q0 6 4 9.5t9 3.5h288q6 0 10 -3.5t4 -9.5v-5q0 -5 -4 -9t-10 -4zM673 434h-286q-6 0 -10 4t-4 9v5q0 5 4 9t10 4h286
q6 0 9.5 -4t3.5 -9v-5q0 -5 -3.5 -9t-9.5 -4zM488 299h-101q-5 0 -9 4t-4 9v5q0 5 4 9t9 4h101q6 0 9.5 -4t3.5 -9v-5q0 -5 -3.5 -9t-9.5 -4zM501 152h-116q-5 0 -9 4t-4 10v4q0 6 4 10t9 4h116q5 0 9 -4t4 -10v-4q0 -6 -4 -10t-9 -4zM323 583l22 22q8 8 0.5 15.5
t-14.5 -0.5l-23 -22l-22 22q-8 8 -15.5 0.5t0.5 -15.5l22 -22l-22 -22q-8 -8 -0.5 -15.5t15.5 0.5l22 22l23 -22q7 -8 14.5 -0.5t-0.5 15.5zM345.5 487.5q-7.5 7.5 -14.5 -0.5l-23 -22l-22 22q-8 8 -15.5 0.5t0.5 -15.5l22 -22l-22 -22q-8 -8 -0.5 -15.5t15.5 0.5l22 22
l23 -22q7 -8 14.5 -0.5t-0.5 15.5l-22 22l22 22q8 8 0.5 15.5zM344.5 353.5q-7.5 7.5 -15.5 -0.5l-22 -22l-23 22q-7 8 -14.5 0.5t0.5 -15.5l22 -22l-22 -22q-8 -8 -0.5 -15.5t14.5 0.5l23 22l22 -22q8 -8 15.5 -0.5t-0.5 15.5l-22 22l22 22q8 8 0.5 15.5zM344.5 209.5
q-7.5 7.5 -15.5 -0.5l-22 -22l-23 22q-7 8 -14.5 0.5t0.5 -15.5l22 -22l-22 -23q-8 -7 -0.5 -14.5t14.5 0.5l23 22l22 -22q8 -8 15.5 -0.5t-0.5 14.5l-22 23l22 22q8 8 0.5 15.5zM829 145q-8 18 -37 54q-13 16 -30 3q-3 -3 -9 -2.5t-9 2.5q-19 15 -33 -6q-2 -3 -6.5 -5
t-6.5 -1q-29 18 -34 -19q-2 0 -6 -1q-10 20 -10 21q-3 8 -7.5 26t-7.5 27q-9 27 -17 41q-3 4 -9.5 6t-11.5 1q-3 0 -5.5 -7t-2.5 -12q0 -7 6 -27q3 -11 18.5 -63.5t23.5 -80.5q8 -27 -1.5 -38t-38.5 -8q-2 0 -7 1.5t-7 0.5q-35 -2 -45 -5q-5 -1 -8 -14q1 -4 -1 -8
q4 -4 17 -7q1 -1 28.5 -5t39.5 -10q17 -8 35.5 -19t41 -24.5t35.5 -20.5q7 -4 15 -1q48 17 91 35q11 4 12 12q16 92 -13 154zM577 228q-18 29 -19 30q-25 30 -7 61q9 14 23.5 21t29.5 3q17 -4 28.5 -18t12.5 -32q0 -2 6 -33q16 25 9 52.5t-33 41.5t-55 4.5t-40 -36.5
q-13 -28 -1 -55t46 -39z" />
    <glyph glyph-name="uniE610" unicode="&#xe610;" 
d="M799 184q19 0 25 6.5t6 25.5q0 18 -20 34l-2 2q-65 50 -113 68q41 35 64 83.5t23 104.5q0 102 -72.5 174.5t-175 72.5t-175 -72.5t-72.5 -174.5q0 -56 23 -104.5t64 -83.5q-129 -49 -209 -163.5t-80 -255.5q0 -44 36 -44q17 0 21.5 10.5t4.5 32.5q0 61 14.5 116.5
t45.5 104.5t75.5 85t109 56.5t143.5 18.5q61 -1 126 -23t108 -58q15 -12 27 -15zM535 329q-90 0 -140 53.5t-50 125.5q0 45 22 87t66.5 71.5t101.5 29.5q49 0 87 -17t59.5 -45.5t32 -60.5t10.5 -66q0 -69 -55.5 -124.5t-133.5 -53.5zM617 66q0 -18 12.5 -27.5t32.5 -9.5h240
q19 0 32 9.5t13 27.5q0 34 -45 34h-240q-45 0 -45 -34zM902 -81h-240q-45 0 -45 -33q0 -34 45 -34h240q45 0 45 34q0 33 -45 33zM902 -81z" />
    <glyph glyph-name="uniE611" unicode="&#xe611;" 
d="M512 834q-186 0 -318 -132t-132 -318t132 -318t318 -132t318 132t132 318t-132 318t-318 132zM512 767q104 0 192.5 -51t139.5 -139.5t51 -192.5q0 -150 -103 -261q-38 22 -93 43q-65 25 -89.5 50.5t-24.5 69.5q0 15 6.5 23.5t16.5 23.5t15 43q1 8 6 12t10 5.5t10 12.5
t7 32q0 11 -3.5 19t-6.5 10l-3 2q6 37 9 65q1 12 -1.5 26.5t-12 32.5t-24.5 32.5t-41.5 24.5t-60.5 10t-61 -10t-41.5 -24.5t-24 -32.5t-12 -32.5t-1.5 -26.5l9 -65q-13 -6 -13 -31q2 -21 7 -32t10 -12.5t10 -5.5t6 -12q5 -28 14.5 -43t16.5 -23.5t7 -23.5q0 -44 -24.5 -70
t-89.5 -50q-55 -21 -93 -43q-103 111 -103 261q0 104 51 192.5t139.5 139.5t192.5 51z" />
    <glyph glyph-name="uniE612" unicode="&#xe612;" 
d="M512 542q-65 0 -111 -46.5t-46 -111.5t46 -111.5t111 -46.5t111.5 46.5t46.5 111.5t-46.5 111.5t-111.5 46.5zM512 270q-47 0 -80 33.5t-33 80.5t33 80.5t80 33.5t80 -33.5t33 -80.5t-33 -80.5t-80 -33.5zM856 500h-19l-2 6q-1 1 -1 2q-4 10 -8 18l-2 6l13 14
q31 30 31 74t-31 75l-15 15q-31 31 -74.5 31t-74.5 -31l-13 -14l-6 3q-9 4 -20 8l-6 2v19q0 44 -31 75t-74 31h-21q-44 0 -75 -31t-31 -75v-19l-6 -2q-11 -4 -20 -8l-6 -3l-13 14q-31 31 -74.5 31t-74.5 -31l-15 -15q-31 -31 -31 -75t31 -74l14 -14l-3 -6q-4 -8 -8 -18v-2
l-3 -6h-19q-43 0 -74 -31t-31 -75v-20q0 -44 31 -75t74 -31h19l3 -6v-2q4 -10 8 -18l3 -6l-14 -13q-31 -31 -31 -75t31 -75l15 -14q31 -31 74.5 -31t74.5 31l13 13l6 -3q9 -4 20 -8l6 -2v-19q0 -44 31 -75t75 -31h21q43 0 74 31t31 75v19l6 2q11 4 20 8l6 3l13 -13
q31 -31 74.5 -31t74.5 31l15 14q31 31 31 75t-31 75l-13 13l2 6q4 8 8 19l1 1l2 6h19q43 0 74 31t31 75v20q0 44 -31 75t-74 31zM917 374q0 -6 -1 -12q0 -2 -1 -4v-1l-1 -1q-1 -4 -1.5 -5.5t-2.5 -5.5l-1 -1v-1l-2 -2q-2 -3 -5 -7v-1q-1 0 -1 -1q-3 -3 -8 -7
q-14 -11 -32 -12h-1q-2 -1 -4 -1h-52q-11 -43 -35 -83l37 -38q14 -14 17 -35q1 -6 1 -10q0 -1 -1 -2v-1q0 -5 -1 -8q0 -1 -1 -3v-1v-2q-1 -3 -2 -5t-3 -5v-1l-1 -1q-1 -2 -2 -3q-3 -5 -7 -9l-15 -15q-4 -4 -9 -8q-1 -1 -3 -2h-1l-1 -1q-4 -2 -5.5 -2.5t-5.5 -1.5h-1v-1h-1
q-2 0 -3 -1q-4 0 -9 -1v0h-2h-2h-8q0 1 -1 1q-20 2 -35 17l-37 37q-40 -25 -83 -36v-51q0 -2 -1 -5v-1q-1 -17 -12 -31v-1q-3 -4 -7 -7q0 -1 -1 -1l-1 -1q-4 -3 -6 -5q-2 -1 -3 -1l-1 -1h-1q-3 -2 -5 -3t-6 -2h-1h-1q-2 -1 -3 -2q-7 -1 -12 -1h-21q-6 0 -12 1l-4 2h-1h-1
q-3 1 -5 2l-6 3h-1v1q-2 0 -3 1q-3 2 -7 5v1q-1 0 -2 1l-7 7v1q-11 14 -12 31v1q-1 3 -1 5v51q-43 11 -83 36l-37 -37q-15 -15 -35 -17l-1 -1h-8h-2h-2v0q-5 1 -9 1q-1 1 -3 1h-1v1h-1q-4 1 -5.5 1.5t-4.5 2.5l-1 1h-1l-4 2q-5 4 -9 8l-15 15q-4 4 -7 9q-1 1 -2 3q0 1 -1 1
v1q-2 3 -3 5t-2 5v2v1q-1 2 -1 3q-1 3 -1 8v1v2q-1 4 0 9v2q3 20 17 34l37 38q-24 40 -35 83h-52q-1 0 -4 1h-1q-18 1 -31 12h-1q-4 3 -7 7q-1 0 -2 1v1q-3 4 -5 7l-2 2v1l-1 1q-2 3 -2 5l-2 6v1l-1 1q0 2 -1 4q-1 6 -1 12v20q0 6 1 12q1 2 1 4q1 1 1 2v0l2 6q0 2 2 5l1 1v1
q1 1 2 3q2 2 5 6v1q1 1 2 1q3 4 7 7h1q13 11 31 12l1 1h4h52q11 43 35 84l-37 37q-14 14 -17 35v1q-1 5 0 9v2v1q0 5 1 8q0 1 1 3v1v2q1 3 2 5t3 5v1q1 0 1 1q1 2 2 3q3 5 7 10l15 14q4 5 9 8l4 2h1l1 1q3 2 4.5 2.5t5.5 1.5q1 0 1 1h1q2 1 3 1q4 1 9 1h2h2h8h1
q20 -3 35 -18l37 -37q40 25 83 36v51q0 2 1 5v1q1 17 12 31v1l7 7l2 2q4 3 7 5q1 1 3 2h1q3 2 6 3q2 1 5 2h1l1 1q2 0 4 1q6 1 12 1h21q5 0 12 -1q1 -1 3 -1l1 -1h1q4 -1 6 -2t5 -3h1h1q2 -1 2 -2q3 -2 7 -5h1q1 -1 1 -2l7 -7v-1q11 -14 12 -31v-1q1 -3 1 -5v-51
q43 -11 83 -36l38 37q14 15 34 18h1h8h2h2h1q4 0 8 -1q1 0 3 -1h1l1 -1l6 -1q2 -1 5 -3l1 -1h1q2 -1 3 -2q5 -4 9 -8l15 -14q4 -5 7 -10q1 -1 2 -3l1 -1v-1q2 -3 3 -5t2 -5v-2v-1q1 -2 1 -3q1 -3 1 -8v-1l1 -1q0 -5 -1 -10v-1q-3 -21 -17 -35l-37 -37q24 -41 35 -84h52h4
l1 -1q18 -1 32 -12q4 -3 8 -7l1 -1v-1q4 -4 5 -6q1 -1 2 -3v-1l1 -1q2 -3 2 -5l2 -6q1 -1 1 -2q1 -2 1 -4q1 -6 1 -12v-20v0z" />
    <glyph glyph-name="uniE613" unicode="&#xe613;" 
d="M504.5 825q-91.5 0 -174.5 -35.5t-143.5 -95.5t-96 -143.5t-35.5 -175t35.5 -175t96 -143.5t143.5 -96t174.5 -36t175 36t143.5 96t96 143.5t36 175t-36 175t-96 143.5t-143.5 95.5t-175 35.5zM505 15q-98 0 -181 48.5t-131 131.5t-48 180.5t48 180.5t131 131t181 48
t180.5 -48t131 -131t48.5 -180.5t-48.5 -180.5t-131 -131.5t-180.5 -48.5zM535 405v120h120v60h-120v60h-60v-60h-120v-240h120v-120h-120v-60h120v-60h60v60h120v240h-120zM475 405h-60v120h60v-120zM595 225h-60v120h60v-120z" />
    <glyph glyph-name="uniE614" unicode="&#xe614;" 
d="M746 462q-32 0 -55 -22.5t-23 -55t23 -55.5t55 -23t55 23t23 55.5t-23 55t-55 22.5zM746 345q-16 0 -27.5 11.5t-11.5 28t11.5 27.5t27.5 11t27.5 -11t11.5 -27.5t-11.5 -28t-27.5 -11.5zM278 462q-32 0 -55 -22.5t-23 -55t23 -55.5t55 -23t55 23t23 55.5t-23 55
t-55 22.5zM278 345q-16 0 -27.5 11.5t-11.5 28t11.5 27.5t27.5 11t27.5 -11t11.5 -27.5t-11.5 -28t-27.5 -11.5zM512 794q-122 0 -225 -52.5t-163 -142.5t-60 -197q0 -112 72 -213q8 -14 7.5 -38.5t-7.5 -55t-15 -57t-15 -44.5l-6 -19q25 7 63.5 18t112 26t93.5 9
q60 -17 143 -17q122 0 225 52t163 142.5t60 197t-60 196.5t-163 142.5t-225 52.5zM512 51q-61 0 -125 17q-37 11 -226 -34q1 2 2.5 7.5t6.5 20.5t8.5 29t8 31.5t6.5 31t2 24t-3 14.5q-41 40 -65 96t-24 115q0 95 54.5 176t149 128t205.5 47t205.5 -47t149 -128t54.5 -176.5
t-54.5 -176.5t-149 -128t-205.5 -47zM512 462q-32 0 -55 -22.5t-23 -55t23 -55.5t55 -23t55 23t23 55.5t-23 55t-55 22.5zM512 345q-16 0 -27.5 11.5t-11.5 28t11.5 27.5t27.5 11t27.5 -11t11.5 -27.5t-11.5 -28t-27.5 -11.5z" />
    <glyph glyph-name="uniE615" unicode="&#xe615;" 
d="M127 -86q-26 0 -44 18t-18 44v594q1 5 5 8l196 167q4 3 7 3h3h378q26 0 44.5 -18t18.5 -44v-33h-13h-15v33q0 14 -10.5 24t-24.5 10h-346l-1 -218h-109v28h81v189l-186 -158v-585q0 -14 10 -24t24 -10h527q14 0 24.5 10t10.5 24v28q7 -1 15 -1q7 0 13 1v-28
q0 -26 -18.5 -44t-44.5 -18h-527zM208 327q-5 0 -9.5 4t-4.5 10t4.5 10t9.5 4h171q-1 -14 -1 -27v-1h-170zM208 91q-5 0 -9.5 4t-4.5 10t4.5 10t9.5 4h247q12 -14 27 -28h-274zM208 209q-5 0 -9.5 4t-4.5 10t4.5 10t9.5 4h183l10 -28h-193zM703.5 74q-105.5 0 -180.5 74.5
t-75 180t75 180.5t180.5 75t180.5 -75t75 -180.5t-75 -180t-180.5 -74.5zM704 555q-94 0 -161 -66.5t-67 -160t67 -160t161 -66.5t160.5 66.5t66.5 160t-66.5 160t-160.5 66.5zM692 167v38l-11 1q-64 7 -89 40l-4 5l30 7l1 -1q20 -17 59 -22l14 -2v85l-10 1q-45 7 -71 21
l-2 1q-27 18 -27 43t28 44t71 24l11 1v37h27v-37l11 -2q57 -6 83 -34l4 -5l-29 -10l-1 2q-19 14 -54 19l-14 2v-88l10 -1q44 -8 67 -19q10 -5 15 -9q1 -1 3 -4q13 -14 13 -30q0 -25 -27.5 -43.5t-69.5 -23.5l-11 -1v-39h-27zM719 233l14 2q26 4 46 15t20 24t-20 23.5
t-46 14.5l-14 2v-81zM678 424q-29 -4 -49 -15.5t-20 -24t20 -24t49 -14.5l14 -2v81z" />
    <glyph glyph-name="uniE616" unicode="&#xe616;" horiz-adv-x="1025" 
d="M606 228q-24 9 -38 22q-14 12 -20.5 26t-7.5 27.5t2 26.5q3 22 14 31q9 9 27 23q7 6 13 17t10 23q5 13 9 28q9 3 17 10q7 6 13 17q5 11 7 29q2 15 -0.5 24.5t-5.5 15.5q-4 7 -10 12q0 36 -4 71q-5 31 -15 65q-11 34 -34 62q-9 12 -27 25q-17 12 -39 22t-47 15
q-25 6 -51 6q-20 0 -42 -3t-43 -12q-22 -9 -42.5 -24.5t-37.5 -39.5q-18 -26 -27.5 -58.5t-13.5 -60.5q-4 -34 -3 -67q-8 -9 -12 -19q-3 -9 -4.5 -21.5t3.5 -27.5t11 -23t11 -12q7 -4 13 -6q5 -16 9 -28t9.5 -23t12.5 -17q15 -13 27 -24q13 -12 14 -32q1 -15 1 -26t-4.5 -22
t-13.5 -21q-10 -11 -29 -22q-23 -15 -54 -23t-60 -18q-29 -11 -50.5 -28t-25.5 -50q-9 -57 -4 -93t13 -44q6 -4 26 -8q20 -5 49 -9q30 -5 65 -9q35 -3 72 -7q38 -3 70 -4q34 -2 60 -2t61 2q31 1 72 4q40 4 76 8q22 3 40 5v247q-6 2 -14 4q-25 7 -48 16zM739 458h186
q16 0 26.5 11t10.5 26t-10.5 25.5t-26.5 10.5h-186q-15 0 -26 -10.5t-11 -25.5t11 -26t26 -11zM925 310h-186q-15 0 -26 -11t-11 -26t11 -26t26 -11h186q16 0 26.5 11t10.5 26t-10.5 26t-26.5 11zM925 88h-186q-15 0 -26 -10.5t-11 -26t11 -26t26 -10.5h186q16 0 26.5 10.5
t10.5 26t-10.5 26t-26.5 10.5zM925 88z" />
    <glyph glyph-name="uniE617" unicode="&#xe617;" 
d="M521 306q-38 0 -73 -8.5t-57.5 -20t-39.5 -23t-25 -19.5l-8 -9v-164l6 -6q4 -4 20 -15t36 -19t55 -14.5t75 -6.5t77 6.5t60.5 15t41.5 18t26 15.5l8 6v164l-3 3q-2 3 -7 7.5t-12 10.5t-17.5 12.5t-22.5 13t-27.5 12.5t-32.5 10.5t-38 7.5t-42 3zM518 36q-71 0 -121 13.5
t-50 33t50 33.5t121 14t121 -14t50 -33.5t-50 -33t-121 -13.5zM531 575l-469 -231l107 -49v-110q-17 -8 -17 -29t17 -30l-21 -67h64l-22 67q20 7 20 30t-20 30v99l74 -34q5 5 14.5 12.5t39 26.5t59 33.5t71 26t78.5 11.5q38 0 76 -11t65 -27.5t48.5 -32.5t32.5 -27l11 -12
l203 90z" />
    <glyph glyph-name="uniE618" unicode="&#xe618;" 
d="M877 702q-17 15 -39 15h-4q-9 -1 -25 -1q-63 0 -114 12q-25 7 -54.5 25.5t-57 41.5t-29.5 24q-14 10 -31.5 10t-31.5 -10l-5 -5q-5 -4 -12 -10.5t-17 -15.5t-22.5 -17.5t-25.5 -17t-27.5 -15t-28.5 -10.5q-51 -12 -115 -12q-15 0 -24 1h-4q-23 0 -39 -15q-18 -17 -18 -42
v-141q0 -107 19.5 -197.5t48.5 -149.5t69 -106t74 -71.5t71 -42t52 -21.5t25 -6q5 -1 10.5 -1t9.5 1q11 2 26 6t52.5 21.5t71.5 42t74.5 71.5t69.5 106t49 149.5t20 197.5v141q0 25 -18 42v0zM838 519q0 -78 -11 -145.5t-29 -117t-42 -91.5t-50 -69.5t-52 -49t-50 -33.5
t-42 -19.5t-29 -10.5l-11 -2q-6 1 -17.5 4t-44 18.5t-62 37t-65.5 64t-62 96t-43.5 136.5t-17.5 182v141h28q71 0 128 13q35 9 74 33.5t61 45.5l21 20q9 -9 24.5 -22.5t58 -40.5t77.5 -36q57 -13 127 -13h29v-141zM700 548l-221 -219l-110 108q-10 11 -24.5 11t-24.5 -10.5
t-10 -24.5t10 -24l128 -127q2 -4 5 -8q11 -10 26 -10t25 10l6 8l239 237q10 10 10 24.5t-10 24.5t-24.5 10t-24.5 -10v0zM700 548z" />
    <glyph glyph-name="uniE619" unicode="&#xe619;" 
d="M932 528h-83q-6 0 -11 -3l-37 113q-9 46 -39.5 70.5t-73.5 24.5h-351q-46 0 -75.5 -26.5t-37.5 -68.5l-37 -113q-6 3 -12 3h-83q-9 0 -16 -7t-7 -16v-20q0 -10 7 -16.5t16 -6.5l32 -6q-16 -30 -16 -67l-12 -133q0 -5 1 -12q-1 -4 -1 -7v-160q0 -17 12.5 -29.5t29.5 -12.5
h63q17 0 29 12.5t12 29.5v51h541v-51q0 -17 12 -29.5t29 -12.5h63q17 0 29 12.5t12 29.5v160v7v12l-11 133q0 37 -16 67l31 6q9 0 16 6.5t7 16.5v20q0 9 -7 16t-16 7zM252 552l27 73l1 1q1 7 3 11t7.5 10t7.5 8h430q2 -3 5.5 -7t5 -6.5t3.5 -6.5t3 -9l28 -74l10 -41
q-2 -22 -23.5 -38t-44.5 -16h-405q-24 0 -45.5 16t-22.5 38zM271 204q-26 0 -44 18t-18 44t18 44.5t44 18.5t44.5 -18.5t18.5 -44.5t-18.5 -44t-44.5 -18zM620 250q0 -8 -5.5 -13.5t-13.5 -5.5h-175q-8 0 -13 5.5t-5 13.5v52q0 8 5 13.5t13 5.5h175q8 0 13.5 -5.5t5.5 -13.5
v-52zM754 204q-26 0 -44.5 18t-18.5 44t18.5 44.5t44 18.5t44 -18.5t18.5 -44.5t-18.5 -44t-43.5 -18zM754 204z" />
    <glyph glyph-name="uniE61A" unicode="&#xe61a;" horiz-adv-x="1025" 
d="M370 -66h-5q-14 3 -20 17l-80 193l-186 73q-13 6 -16 20t7 24l57 57q8 8 19 8h2l138 -10l124 123l-304 148q-12 6 -14.5 19.5t7.5 23.5l56 56q8 8 19 8q2 0 5 -1l413 -78l190 190q30 29 73 29t72 -29l5 -5q30 -30 30 -72.5t-29 -72.5l-189 -189l82 -410q3 -14 -7 -24
l-57 -57q-8 -8 -19 -8h-4q-14 2 -20 15l-152 295l-119 -120l11 -132q1 -12 -8 -21l-62 -62q-8 -8 -19 -8zM295 190q11 -4 15 -15l70 -167l25 25l-12 132q-1 13 8 22l154 154q8 8 19 8h5q13 -2 19 -15l152 -295l21 21l-83 410q-3 14 8 24l198 199q15 14 15 34.5t-15 34.5
l-5 5q-13 14 -34 14t-35 -14l-200 -200q-7 -8 -19 -8h-5l-413 79l-19 -19l303 -148q12 -6 14.5 -20t-7.5 -24l-158 -158q-8 -8 -19 -8h-2l-139 11l-19 -20z" />
    <glyph glyph-name="uniE61B" unicode="&#xe61b;" 
d="M888 139l-5 2l-213 -9l-5 1l-384 -17l-47 -1l-4 -1v-4l45 -113q6 -2 12 -2h2q22 1 30 16q8 -16 31 -16t31 16q9 -16 31 -16q23 0 32 16q8 -16 30 -16h2q22 1 30 16q8 -16 30.5 -16t31.5 16q8 -16 31 -16t31 16q8 -15 30 -16h2q22 1 30 16q8 -15 29 -16h2h3l161 140z
M455 168l162 12q6 0 6 7v573l-4 6h-6q-1 -1 -22 -30.5t-53.5 -79t-55.5 -89.5q-72 -130 -211 -419zM661 183l147 -3l5 5l-1 3l-146 356l-6 3l-4 -5v-354zM829 562q2 0 6 -0.5t13.5 -2t17 -4t15 -9t10.5 -14.5q1 1 2 3.5t6 8t10.5 8t14.5 4.5t19 -3q-1 1 -3 2.5t-7.5 5
t-11.5 5t-14 -0.5t-15 -9q-26 25 -63 6zM71 523q3 0 8 -0.5t17.5 -2.5t23 -5.5t20.5 -12t14 -19.5l2 5q2 3 8.5 10.5t14 11t20 6t25.5 -4.5q-2 1 -4.5 3.5t-10.5 7t-15.5 6.5t-18.5 -1t-20 -12q-21 22 -56 17q-14 -2 -28 -9zM124 617q2 0 5 -0.5t12 -1.5t15.5 -3.5t13.5 -8
t9 -13.5q1 2 2 3.5t5.5 7t9.5 7.5t13.5 3.5t16.5 -2.5l-2 3q-2 1 -7.5 4t-10.5 4t-12.5 -0.5t-13.5 -8.5l-2 3q-2 1 -7.5 4t-11.5 4.5t-15.5 0.5t-19.5 -6zM699 602q8 24 29.5 23t28.5 -24q2 -6 8.5 -5.5t8.5 5.5q9 18 26 29.5t35 7.5l2 5q-20 12 -38 5t-33 -26
q-15 21 -42.5 15.5t-30.5 -34.5zM272 474q3 8 7.5 10.5t9 0t7 -5.5t7.5 -8l2 -2q2 -3 6 -2.5t6 4.5q3 10 11 18t16 2l3 2q-11 11 -21.5 7.5t-18.5 -15.5q-26 20 -39 -10zM193 708q2 0 7 -0.5t17.5 -2.5t23 -5.5t20.5 -12t14 -19.5l3 5q1 3 7.5 10.5t14 10.5t20 6t25.5 -4
q-2 1 -4.5 3.5t-10 7t-15.5 6.5t-19 -1t-20 -12q-22 23 -58 17q-12 -3 -25 -9z" />
    <glyph glyph-name="uniE61C" unicode="&#xe61c;" 
d="M854 206q-44 0 -75.5 31.5t-31.5 76.5v3l-61 14q-19 -63 -74 -98l51 -89q15 5 31 5q44 0 75.5 -31.5t31.5 -76t-31.5 -76t-76 -31.5t-75.5 31.5t-31 75.5q0 55 43 87l-51 88q-31 -13 -66 -13q-77 0 -131 56l-118 -93q13 -24 13 -52q0 -44 -31.5 -75.5t-76 -31.5
t-75.5 31.5t-31 76t31 76t76 31.5q42 0 72 -29l119 94q-29 44 -29 98q0 65 41 115l-140 139q-28 -20 -63 -20q-44 0 -75.5 31.5t-31.5 76t31.5 76t76 31.5t76 -31.5t31.5 -75.5q0 -35 -21 -63l140 -140q50 42 116 42q24 0 46 -6l28 72q-25 14 -40.5 39t-15.5 56
q0 44 31 75.5t75.5 31.5t76 -31.5t31.5 -76t-31.5 -76t-75.5 -31.5q-10 0 -20 2l-28 -72q47 -22 75.5 -66t28.5 -98q0 -9 -1 -19l61 -13q12 30 39 49t61 19q45 0 76 -31.5t31 -76t-31 -76t-76 -31.5zM622 40q0 -30 21 -51t51 -21t51 21t21 51t-21 51.5t-51 21.5t-51 -21.5
t-21 -51.5zM170 185q-30 0 -51 -21t-21 -51t21 -51t51 -21t51 21t21 51t-21 51t-51 21zM170 798q-30 0 -51 -21.5t-21 -51t21 -51t51 -21.5t51.5 21.5t21.5 51t-21.5 51t-51.5 21.5zM638 653q30 0 51 21.5t21 51t-21 51t-51 21.5t-51 -21.5t-21 -51t21 -51t51 -21.5z
M513 527q-60 0 -102 -42.5t-42 -102t42 -101.5t102 -42t102 42t42 101.5t-42 102t-102 42.5zM854 385q-30 0 -51 -21.5t-21 -51t21 -51t51 -21.5t51 21.5t21 51t-21 51t-51 21.5z" />
    <glyph glyph-name="uniE61D" unicode="&#xe61d;" horiz-adv-x="1179" 
d="M1032 834h-905q-27 0 -46 -19t-19 -46v-623q0 -27 19 -46t46 -19h50q4 -15 16 -27q3 -3 8 -4q94 -25 107 -62q5 -16 -4 -28q-10 -13 2.5 -22.5t22.5 2.5q20 26 9 58q-18 52 -125 81q-8 9 -8 17q1 10 12 18v1q3 2 7 4q1 0 2 1q2 1 10 4q12 3 31 3q41 0 95 -16q11 -5 18 -8
q2 -2 5 -4q12 -6 23 -14l1 -1h1q33 -23 56 -44.5t32 -35t15 -25.5t4 -15.5t0 -6.5v0q-3 -5 -1.5 -11.5t7.5 -9.5q4 -2 7 -2q10 0 14 9q3 4 4 10t-0.5 19t-9 27.5t-26 36.5t-46.5 45h278q-28 -23 -46.5 -45t-26 -36.5t-9 -27.5t-0.5 -19t4 -10q4 -9 14 -9q4 0 7 2q14 7 7 21
q-1 0 -1 2t1 8t3.5 13t10 18.5t18.5 23.5t30 28.5t44 33.5q11 8 25 16q4 2 5 2q7 4 18 9q54 16 95 16q18 0 31 -3q8 -3 10 -4h1l1 -1q4 -2 7 -4v-1q12 -8 12 -18q-1 -8 -8 -17q-107 -29 -125 -81q-11 -32 10 -58q9 -12 21.5 -2.5t2.5 22.5q-9 12 -4 28q12 37 107 62q5 1 8 4
q12 12 16 27q27 0 45.5 19.5t18.5 45.5v623q0 27 -19 46t-46 19zM229 533h139q19 -66 -7 -140l-2 -5q-8 -22 -11.5 -36.5t-0.5 -46.5t18 -70q22 -57 -1 -91l-2 2h-2q-27 10 -54 14h-2h-2q-13 2 -24 2h-5l-18 -2h-2h-2q-1 0 -2 -0.5t-2 -0.5q12 60 -8 90q-14 22 -15 75
t15 103q11 32 -10 106zM845 235q15 38 18 70t-0.5 46.5t-11.5 36.5l-1 5q-27 74 -8 140h140q-22 -74 -11 -106q16 -50 15.5 -103t-15.5 -75q-20 -30 -8 -90l-3 1h-2h-2q-9 1 -20 2h-3q-42 0 -87 -18q-23 34 -1 91zM1066 146q0 -14 -9.5 -23.5t-23.5 -10.5q-3 9 -10 17
q0 1 -1 1.5t-1 1.5h-1q-3 4 -7 7q-2 1 -3 2q-3 2 -7 5h-2l-1 1l-1 1h-1q-17 59 -1 84q20 29 21 90.5t-17 114.5q-9 25 13 96h6q7 0 11.5 4.5t4.5 11t-4.5 11t-11.5 4.5h-203q-6 0 -11 -4.5t-5 -10.5q0 -10 9 -14q-18 -73 10 -153l2 -4q7 -20 9.5 -32t0 -39.5t-15.5 -60.5
q-26 -68 1 -115q-16 -8 -31 -19h-361q-1 0 -2 1l-1 1l-26 16h-2l-1 1q27 47 1 115q-13 33 -15.5 60.5t0 39.5t9.5 32l2 4q28 80 10 153q9 4 9 14q0 6 -5 10.5t-11 4.5h-203q-7 0 -11.5 -4.5t-4.5 -11t4.5 -11t11.5 -4.5h6q22 -71 13 -96q-18 -52 -16.5 -114t20.5 -91
q16 -25 -1 -84q-1 0 -2 -1l-1 -1q-1 0 -2 -1q-4 -2 -7 -4q-1 -1 -3 -2q-4 -3 -7 -7q-1 0 -1 -0.5t-1 -1t-1 -1.5q-2 -2 -5 -7q-4 -5 -5 -10h-50q-14 0 -24 10t-10 24v623q0 14 10 24t24 10h905q14 0 24 -10t10 -24v-623zM547 606.5q0 6.5 -5 11t-11 4.5q-53 0 -120 48
q-9 7 -12 8q-13 8 -21 -5.5t5 -21.5q3 -1 9 -6q75 -55 139 -55q6 0 11 5t5 11.5zM771 678q-3 -1 -11 -8q-67 -48 -120 -48q-7 0 -11.5 -4.5t-4.5 -11t4.5 -11.5t11.5 -5q63 0 138 55q8 5 9 7q14 8 6 21.5t-22 4.5zM692 252l-106 47q-7 4 -13 0l-94 -47q-6 -3 -8 -9.5
t1 -11.5q7 -14 21 -7l87 44l99 -45q3 -1 6 -1q10 0 15 9q2 6 0 12t-8 9z" />
    <glyph glyph-name="uniE61E" unicode="&#xe61e;" horiz-adv-x="1174" 
d="M769 352v-434q0 -31 -22.5 -53.5t-53.5 -22.5h-460q-32 0 -54 22.5t-22 53.5v613q0 32 22 54.5t54 22.5h281v51h-306q-43 0 -72.5 -30t-29.5 -72v-664q0 -42 29.5 -72t72.5 -30h510q43 0 72.5 30t29.5 72v459h-51zM642 404q-32 0 -54.5 22t-22.5 54v179h-51v-204
q0 -43 30 -73t72 -30h204v52h-178zM565 659l-18 -54l255 -256l18 18v36zM361 710v-51h51v25q0 32 22.5 54.5t53.5 22.5h281v51h-306q-42 0 -72 -30t-30 -72zM1025 506v-434q0 -32 -22.5 -54.5t-54.5 -22.5h-128v-51h154q42 0 72 30t30 72v460h-51zM897 557q-32 0 -54.5 22.5
t-22.5 53.5v179h-51v-204q0 -43 30 -72.5t72 -29.5h205v51h-179zM820 812l-18 -54l256 -255l18 18v36zM488 352h-280v-51h280v51zM488 225h-280v-51h280v51zM208 97v-51h408v51h-408zM208 -82h408v52h-408v-52z" />
    <glyph glyph-name="uniE61F" unicode="&#xe61f;" horiz-adv-x="1026" 
d="M964 441h-1l-56 337q0 23 -16.5 39.5t-39.5 16.5h-677q-23 0 -39.5 -16.5t-16.5 -39.5l-56 -338q0 -15 10.5 -30t23.5 -22q11 -10 21 -15v-383q0 -23 16.5 -39.5t40.5 -16.5h676q24 0 40.5 16.5t16.5 39.5v384q9 4 18 10q17 7 28 22.5t11 33.5v1zM141 778q0 14 10 24
t23 10h677q14 0 24 -10t10 -24v-4l5 -28h-754l4 28zM132 724h762l47 -284q-15 -25 -42.5 -40.5t-58 -15.5t-56 15.5t-39.5 41.5h-28q-14 -26 -39.5 -41.5t-56 -15.5t-56 15.5t-40.5 41.5h-29q-15 -26 -40.5 -41.5t-56 -15.5t-56 15.5t-39.5 41.5h-27q-15 -26 -40 -41.5
t-55.5 -15.5t-56 15.5t-40.5 41.5zM884 -10q0 -14 -10 -24t-24 -10h-676q-14 0 -24 10t-10 24v375q19 -5 41 -5q69 0 109 59q41 -59 110 -59q34 0 63 16.5t48 45.5q18 -29 47 -45.5t64 -16.5q33 0 62 16t47 43q41 -59 110 -59q21 0 43 6v-376z" />
    <glyph glyph-name="uniE620" unicode="&#xe620;" 
d="M490 570zM512 835q-92 0 -175.5 -36t-143.5 -96t-96 -143.5t-36 -175.5t36 -175.5t96 -143.5t143.5 -96t175.5 -36t175.5 36t143.5 96t96 143.5t36 175.5t-36 175.5t-96 143.5t-143.5 96t-175.5 36zM512 -31q-113 0 -208.5 55.5t-151 151t-55.5 208.5t55.5 208.5t151 151
t208.5 55.5t208.5 -55.5t151 -151t55.5 -208.5t-55.5 -208.5t-151 -151t-208.5 -55.5zM284 228h82v296h-63v19q41 7 69 23h24v-338h75v-25h-187v25zM519 244l16 20q41 -43 95 -43q35 0 60 27t25 70t-22.5 68t-61.5 25q-30 0 -64 -22l-19 11l13 166h166v-25h-140l-11 -123
q29 18 61 18q48 0 78 -29.5t30 -87.5q0 -56 -34 -89.5t-80 -33.5q-64 0 -112 48z" />
    <glyph glyph-name="uniE621" unicode="&#xe621;" 
d="M849 834h-674q-21 0 -35.5 -15t-14.5 -36v-825q0 -10 6.5 -16.5t16.5 -6.5t17 7q88 96 114 110q10 -3 37 -48q14 -21 22 -32.5t22.5 -23t29.5 -11.5t29.5 11t23.5 22t25 34q33 49 44 49q9 -1 40 -48q14 -22 22 -33t21.5 -22t27.5 -11h3q15 0 30.5 10t25.5 20.5t28 31.5
q37 45 50 48q21 -17 87 -104q9 -11 23 -11q12 0 20.5 8.5t8.5 20.5v820q0 21 -14.5 36t-35.5 15zM859 -3q-34 43 -54.5 64.5t-26.5 25t-13 3.5q-15 1 -31 -9t-27 -21t-29 -33q-40 -48 -52 -48q-10 1 -40 48q-14 22 -22 33t-23 22t-29 11q-15 0 -30 -10.5t-23.5 -22
t-24.5 -33.5q-34 -49 -44 -49q-9 0 -39 48q-14 22 -22 33t-22.5 22.5t-29.5 11.5q-25 0 -112 -90v780q0 10 10 10h674q10 0 10 -10v-786zM859 -3zM301 540h422q13 0 22.5 9.5t9.5 22.5t-9.5 22t-22.5 9h-422q-13 0 -22.5 -9t-9.5 -22t9.5 -22.5t22.5 -9.5zM301 540zM723 461
h-422q-13 0 -22.5 -9t-9.5 -22t9.5 -22.5t22.5 -9.5h422q13 0 22.5 9.5t9.5 22.5t-9.5 22t-22.5 9zM723 461zM723 319h-422q-13 0 -22.5 -9t-9.5 -22t9.5 -22.5t22.5 -9.5h422q13 0 22.5 9.5t9.5 22.5t-9.5 22t-22.5 9zM723 319z" />
    <glyph glyph-name="uniE622" unicode="&#xe622;" 
d="M687 546l-17 -21l-17 20q-47 47 -107 47q-66 0 -113 -47t-47 -113t47 -113l67 -67q36 48 97.5 77t133.5 29q94 0 167 -47l9 8q47 47 47 113t-47 113t-113 47q-61 0 -107 -46zM460 137q0 43 20 83q-52 49 -94 101q-13 21 -22.5 49.5t-12.5 62t8 61.5q20 53 54 85.5
t105 42.5q32 4 56.5 1t42.5 -11.5t30 -17t17 -14.5l6 -7q14 18 59 39q-13 20 -29 37q-58 57 -139 57q-76 0 -132 -56v0l-21 -26l-21 25q-58 57 -132 57q-81 0 -138.5 -57.5t-57.5 -138.5t57 -139l261 -263q13 -13 31 -13t31 13l22 22q-1 4 -1 7zM730.5 279q38.5 0 73.5 -12
q34 -12 59 -33q50 -41 50 -97q0 -64 -63 -107l-24 -17l1 -5l-8 4l-17 -5q-34 -12 -71 -12q-39 0 -74 12q-33 12 -58 32q-51 42 -51 98t51 97q25 21 58 33q35 12 73.5 12zM731 320q-93 0 -158 -53.5t-65 -129.5t65 -129.5t158 -53.5q44 0 85 14q35 -18 81 -31q-14 24 -24 59
q38 26 59.5 62.5t21.5 78.5q0 76 -65.5 129.5t-157.5 53.5z" />
    <glyph glyph-name="uniE623" unicode="&#xe623;" 
d="M495 -65q-78 0 -153.5 27.5t-133.5 74.5t-93 114t-35 142v210h853v-210q2 -74 -36.5 -142t-101.5 -114.5t-142 -74t-158 -27.5zM882 447h-740v-154q0 -85 53 -155.5t135 -108.5t171 -38q66 0 133.5 23t122.5 61.5t90 96t35 121.5v154zM506 105q-34 0 -59.5 25.5
t-25.5 60.5v56q0 36 24 61t61 25q34 0 60 -25.5t26 -60.5v-56q0 -36 -24 -61t-62 -25zM540 247q0 13 -7.5 21t-20.5 8t-20.5 -8t-7.5 -21v-62q0 -13 7.5 -21t20.5 -8t20.5 8t7.5 21v62zM558 782q-55 8 -121.5 -16t-116.5 -67t-64 -87v-131l-63 -6l12 154q17 62 71 115.5
t132.5 79.5t154.5 9zM768 481l-6 131q-11 44 -60 87t-116.5 67t-124.5 16v46q74 16 151 -10t132 -79t75 -116l12 -154z" />
    <glyph glyph-name="uniE624" unicode="&#xe624;" 
d="M746 -55v149h118v245h-300v-363h134v-39h-40h-1h-132v441h378v-302v-3v-6v-2l-1 -1l-1 -9h-2q-16 -42 -49 -73.5t-76 -44.5h-1h-5h-6h-5h-1l-9 -3zM785 -16q48 23 72 71h-72v-71zM604 165v40h221v-40h-221zM604 236v40h221v-40h-221zM148 -53q-12 0 -20 8.5t-8 20.5v79
q0 118 66 215t177 141l18 7l-15 12q-42 33 -64.5 79.5t-22.5 98.5q0 93 66.5 159.5t160.5 66.5t161 -66.5t67 -159.5q0 -79 -50 -141h-83q35 24 55.5 61t20.5 80q0 70 -50 119.5t-120.5 49.5t-120.5 -49.5t-50 -119.5q0 -47 24.5 -87t65.5 -62v-87q-110 -27 -179.5 -115.5
t-69.5 -201.5v-51h246v-57h-275z" />
    <glyph glyph-name="uniE625" unicode="&#xe625;" 
d="M219 429q-18 0 -30.5 -12t-12.5 -31v-372q0 -18 12.5 -30.5t30.5 -12.5h601q19 0 31 12.5t12 30.5v372q0 19 -12 31t-31 12h-601zM820 -58h-601q-30 0 -51 21t-21 51v372q0 30 21 51t51 21h601q30 0 51 -21t21 -51v-372q0 -30 -21 -51t-51 -21zM749 451h-29v140
q0 84 -60 144t-143 60q-82 0 -140 -58t-58 -140v-146h-29v146q0 93 66.5 159.5t160.5 66.5q95 0 163.5 -68t68.5 -164v-140zM519.5 322q-23.5 0 -40.5 -17t-17 -40q0 -37 35 -53l8 -5v-101q0 -15 14.5 -15t14.5 15v101l8 5q16 6 25.5 20.5t9.5 32.5q0 23 -17 40t-40.5 17z
M519.5 64q-18.5 0 -30.5 12.5t-12 30.5v83q-43 26 -43 75q0 35 25 60.5t60.5 25.5t61 -25.5t25.5 -60.5q0 -49 -43 -75v-83q0 -18 -12.5 -30.5t-31 -12.5z" />
    <glyph glyph-name="uniE626" unicode="&#xe626;" 
d="M434 474q0 -6 4 -10t9 -4q2 -27 21 -49t44 -22t44 22t21 49q5 0 9 4t4 10q0 8 -8 12q4 12 4 26q0 32 -21.5 55t-52.5 23t-52.5 -23t-21.5 -55q0 -14 4 -26q-8 -3 -8 -12zM434 474zM354 263h316q7 0 7 7v24q0 3 -2 5q-47 45 -108 61h-3h-3h-4q-19 -11 -45 -11t-45 11h-4
h-2h-2q-62 -15 -110 -61q-2 -2 -2 -5v-24q0 -7 7 -7zM354 263zM668 8h-431v759h460v-97q0 -7 5.5 -12.5t12.5 -5.5h99v-397q31 -3 59 -18v433q0 13 -8 21l-129 127q-8 8 -21 8h-508q-12 0 -20.5 -8.5t-8.5 -20.5v-819q0 -13 8.5 -21.5t20.5 -8.5h538q-48 17 -77 60z
M664 94.5q0 -56.5 40 -96t96 -39.5t96 39.5t40 96t-40 96t-96 39.5t-96 -39.5t-40 -96zM664 174h-333q-5 0 -8.5 -3.5t-3.5 -8t3.5 -8t8.5 -3.5h321q5 12 12 23zM803 95v104h-29v-134h115v30h-86z" />
    <glyph glyph-name="uniE627" unicode="&#xe627;" horiz-adv-x="1025" 
d="M930 273h-168q-11 0 -19.5 8.5t-8.5 20t8.5 19.5t19.5 8h168q11 0 19.5 -8t8.5 -19.5t-8.5 -20t-19.5 -8.5zM930 441h-224q-11 0 -19.5 8t-8.5 19.5t8.5 20t19.5 8.5h224q11 0 19.5 -8.5t8.5 -20t-8.5 -19.5t-19.5 -8zM930 608h-224q-11 0 -19.5 8.5t-8.5 20t8.5 19.5
t19.5 8h224q11 0 19.5 -8t8.5 -19.5t-8.5 -20t-19.5 -8.5zM678 217v-114q0 -70 -49 -119t-118 -49h-279q-70 0 -119 49t-49 119v114q0 55 31.5 98t81.5 60q-57 77 -57 177q0 116 73.5 198t177.5 82t178 -82t74 -198q0 -100 -58 -177q50 -17 81.5 -60t31.5 -98zM567 552.5
q0 92.5 -57.5 158t-138.5 65.5t-138 -65.5t-57 -158t57 -158t138 -65.5t138.5 65.5t57.5 158zM623 204q0 44 -30 77.5t-76 43.5q-65 -52 -145.5 -52t-145.5 52q-46 -10 -76 -43.5t-30 -77.5v-87q0 -52 40 -89t97 -37h229q56 0 96.5 37t40.5 89v87zM762 162h168
q11 0 19.5 -8.5t8.5 -20t-8.5 -19.5t-19.5 -8h-168q-11 0 -19.5 8t-8.5 19.5t8.5 20t19.5 8.5z" />
    <glyph glyph-name="uniE628" unicode="&#xe628;" 
d="M962 748v-622q0 -11 -7.5 -18.5t-18.5 -7.5h-156q-10 0 -18 7.5t-8 18.5v622q0 11 8 18.5t18 7.5h156q11 0 18.5 -7.5t7.5 -18.5zM477 126v415q0 11 7.5 18.5t18.5 7.5h156q11 0 18.5 -8t7.5 -18v-415q0 -11 -7.5 -18.5t-18.5 -7.5h-156q-11 0 -18.5 7.5t-7.5 18.5z
M529 152h104v363h-104v-363zM226 100h156q10 0 17.5 7.5t7.5 18.5v207q0 11 -7.5 18.5t-17.5 7.5h-156q-11 0 -18.5 -7.5t-7.5 -18.5v-207q0 -11 7.5 -18.5t18.5 -7.5zM131 834h-69v-900h900v69h-831v831z" />
    <glyph glyph-name="uniE629" unicode="&#xe629;" 
d="M511.5 830q-90.5 0 -173.5 -35.5t-142.5 -95.5t-95 -142.5t-35.5 -173.5t35.5 -173.5t95 -142.5t142.5 -95.5t173.5 -35.5t173.5 35.5t142.5 95.5t95 142.5t35.5 173.5t-35.5 173.5t-95 142.5t-142.5 95.5t-173.5 35.5zM782 112.5q-54 -54.5 -124 -83.5t-146.5 -29
t-146.5 29t-124 83.5t-83 124t-29 146.5t29 146.5t83 124t124 83.5t146.5 29t146.5 -29t124 -83.5t83 -124t29 -146.5t-29 -146.5t-83 -124zM511 129zM447 129.5q0 26.5 19 45t45 18.5t44.5 -18.5t18.5 -45t-18.5 -45t-44.5 -18.5t-45 18.5t-19 45zM575 322v318v0v1
q0 26 -18.5 44.5t-45 18.5t-45 -18.5t-18.5 -44.5v-319v-1q0 -26 18.5 -45t45 -19t45 19t18.5 45v1z" />
    <glyph glyph-name="uniE62A" unicode="&#xe62a;" 
d="M953 417q-4 56 -23 111q-31 89 -96 158q-63 68 -149 104q-59 25 -120 32q-5 1 -11 1.5t-13 1t-11 0.5l-3 1h-30q-18 -2 -19 -2q-56 -4 -112 -23q-89 -31 -157 -96q-68 -64 -104 -149q-25 -59 -32 -120q-1 -5 -1.5 -11t-1 -13t-0.5 -11l-1 -4v-29q2 -18 2 -19
q4 -57 23 -112q34 -98 109 -171q67 -66 156 -99q50 -18 100 -23q5 -1 11 -1.5t13 -1t11 -0.5l3 -1h30l5 1q53 2 103 17q88 25 159 84q10 8 17 14q5 5 5 12q1 3 1 6q0 10 -6.5 17t-16.5 7q-9 0 -16 -7q-1 -1 -2 -1q-49 -44 -108 -70q-59 -25 -123 -31q-57 -4 -112 7
q-75 15 -139 57q-75 50 -121 127q-47 78 -54 169q-6 71 12 136q33 122 130 202q94 78 217 89q55 5 109 -6q102 -20 181 -87q57 -49 92 -114q39 -72 45 -153q6 -70 -12 -138q-14 -48 -40 -94q-3 -6 -3 -12q0 -10 7 -17t17 -7q6 0 12 4q5 2 8 8q51 87 59 187q0 1 2 18v32
q-2 19 -2 20zM545 590q0 25 -13 41q-16 18 -32 6q-7 -5 -12 -12q-9 -14 -9 -37v-154v-117v-8q1 -18 9 -30q10 -15 23 -16q15 0 25 16q9 15 9 37v136v102v36zM471 166q0 -17 12 -29t29 -12.5t29.5 12t11.5 29.5q0 6 -1 11q-2 15 -13.5 25.5t-26.5 10.5t-26.5 -10.5
t-13.5 -25.5q-1 -6 -1 -11z" />
    <glyph glyph-name="uniE62B" unicode="&#xe62b;" 
d="M523.5 815q-90.5 0 -173 -35.5t-142 -95t-94.5 -141.5t-35 -172.5t35 -173t94.5 -142t142 -95t173 -35.5t173 35.5t142 95t94.5 142t35 173t-35 172.5t-94.5 141.5t-142 95t-173 35.5zM523.5 -15q-104.5 0 -193 51.5t-140.5 140.5t-52 193.5t52 193t140.5 140.5t193 52
t193.5 -52t140.5 -140.5t51.5 -193t-51.5 -193.5t-140.5 -140.5t-193.5 -51.5zM811 421l-266 206q-9 9 -21.5 9t-20.5 -9l-266 -206q-8 -8 -8 -20.5t8.5 -21t20.5 -8.5t21 8l37 28v-274q0 -12 9 -21t21 -9h148v178h59v-178h149q12 0 20.5 9t8.5 21v274l38 -28q8 -9 20.5 -9
t21 8.5t8.5 21t-8 21.5zM672 163h-59v148q0 12 -9 20.5t-21 8.5h-119q-12 0 -20.5 -8.5t-8.5 -20.5v-148h-60v289l149 113l148 -113v-289z" />
    <glyph glyph-name="uniE62C" unicode="&#xe62c;" 
d="M512.5 -159q93.5 0 179 36.5t147 98t98 147t36.5 178.5t-36.5 178.5t-98 147t-147 98t-179 36.5t-178.5 -36.5t-146.5 -98t-98 -147t-36.5 -178.5t36.5 -178.5t98 -147t146.5 -98t178.5 -36.5zM512.5 723q114.5 0 211.5 -56.5t153.5 -154t56.5 -211.5t-56.5 -211.5
t-153.5 -154t-211.5 -56.5t-211.5 56.5t-153.5 154t-56.5 211.5t56.5 211.5t153.5 154t211.5 56.5zM401 254l-101 20l-40 -41l115 -79l66 -106l40 41l-13 97l80 76l78 -218l66 67l-42 242l79 79q22 22 32 42t8 34t-6 22t-9 14q-18 19 -47.5 12.5t-61.5 -38.5l-79 -79
l-243 47l-66 -67l219 -81zM320 433l14 15l244 -47l92 92q30 30 49 30q6 0 10 -4q18 -19 -24 -62l-93 -92l42 -242l-14 -14l-77 215l-132 -125l12 -88l-41 65l-82 58l94 -18l123 137z" />
    <glyph glyph-name="uniE62D" unicode="&#xe62d;" 
d="M498 -148q-20 2 -21 2q-99 7 -183 55q-127 74 -186 201q-25 57 -34 113q-1 2 -6 56l-1 5v24l2 16q2 50 15 94q40 132 136 214q87 75 194 99q35 8 69 9q1 0 17 2h25l16 -2q66 -3 131 -28q100 -38 172.5 -119.5t98.5 -184.5q12 -48 14 -91l1 -5v-27l-1 -5q0 -3 -1 -12.5
t-1 -14.5q-3 -36 -13 -73q-27 -102 -103 -185.5t-183 -118.5q-57 -19 -107 -22q-1 0 -21 -2h-30zM942 297q0 89 -35.5 169.5t-95 138.5t-142 91t-172.5 30q-85 -3 -162 -38.5t-134 -94.5t-89 -141t-29 -172q3 -84 38.5 -160.5t93 -132t137 -88.5t167.5 -31q116 1 213 59
t153.5 156.5t56.5 213.5zM530 553q53 -2 93 -15q76 -23 116 -87q14 -21 21 -44.5t27 -45.5q31 -34 42 -48q17 -22 32 -67q8 -26 10 -34q5 -21 -12 -42q-4 -5 -16 -16q-3 -2 -7 -2h-8q-7 0 -7 -1l-8 -11q-27 -42 -74 -38q-42 4 -61 42q-4 8 -12 8h-323q-6 0 -8 -5
q-11 -23 -32 -35t-46 -10q-41 5 -61 42q-1 1 -1.5 3t-1.5 3t-3 2q-18 1 -32 17q-18 18 -24 50q-6 27 -4 52q3 31 25 56q25 28 72 48q26 11 56 17q3 1 4 4q29 56 79 98q53 43 119 54q2 1 45 5zM143 257q2 -24 3 -26q4 -32 20 -51q12 -13 26 -15q9 0 14 -9q2 -5 2 -6
q10 -19 30 -28.5t42 -3.5q30 7 42 36q6 12 19 12h330q13 0 18 -12q8 -19 27 -30q25 -14 52 -4q27 9 37 35q4 10 15 11h6q9 -2 17 7q4 4 5 6q14 17 9 34q-9 29 -15 45q-13 34 -29 52.5t-38 42.5q-21 22 -28 46q-9 33 -31 60q-23 30 -55 48q-42 23 -90 28q-44 5 -80 0
q-53 -7 -100 -40q-59 -42 -92 -106q-3 -8 -12 -10q-33 -9 -48 -15q-37 -13 -62 -35q-36 -31 -34 -72zM419 363h-83q-6 1 -10 3q-13 6 -4 21q16 28 39 52q56 55 142 78q5 1 9.5 -2t5.5 -7q2 -6 2 -9v-117q0 -6 -3 -11q-3 -8 -15 -8h-77h-6zM505 504q-120 -36 -173 -126h173
v126zM642 363h-84q-10 0 -14 7q-2 4 -2 9v121q0 18 20 16q39 -5 75 -20q46 -20 76 -61q19 -26 28 -50q4 -8 1 -15q-4 -7 -15 -7h-85zM730 377q-27 61 -71 91q-38 25 -103 35v-126h174z" />
    <glyph glyph-name="uniE62E" unicode="&#xe62e;" 
d="M210 270q-1 7 -2 21t0 54t7 77t23.5 83.5t45 82.5t76.5 65t113 39v78q-6 0 -22 -1.5t-54.5 -12.5t-75 -29t-77 -56t-68 -88.5t-41.5 -132t-3 -180.5h-54l105 -106l79 106h-52zM786 216v84q22 27 26.5 54.5t-4.5 47t-21.5 35t-23.5 23.5l-11 8q1 25 -5.5 46t-16.5 33.5
t-20.5 22t-17.5 13.5l-8 3h-286q-24 -11 -40.5 -27t-21.5 -31.5t-7 -29t0 -22.5l1 -8q-34 -22 -50 -48t-15 -46t8 -37.5t14.5 -27t8.5 -9.5v-84h84v50h320v-50h86zM398 568h286q7 -6 16 -16.5t23 -37t11 -46.5h-386q0 7 2 19t14.5 38.5t33.5 42.5zM357 334q-17 0 -30 12.5
t-13 28.5q0 17 12.5 29t30.5 12q17 0 30 -12.5t13 -28.5q-2 -17 -14 -29t-29 -12zM652 350h-220v34h220v-34zM684 375q0 17 12.5 29t30.5 12q17 0 30 -12.5t13 -28.5q0 -17 -12.5 -29t-30.5 -12t-30.5 12t-12.5 29zM772 132q-6 -5 -17 -13.5t-45.5 -29t-69 -34.5t-83.5 -22
t-93.5 -0.5t-94.5 39.5t-91 89l-70 -38q6 -7 16.5 -18.5t44.5 -41t70.5 -52t92 -41t111.5 -18.5t127 27t139 83l25 -46l42 143l-131 19zM670 758l27 46l-143 -35l50 -122l27 45q4 -2 10.5 -4.5t27 -13t40 -23t44.5 -34t45 -46t38 -59t27 -72.5t8 -88t-15 -104l68 -41l4 13
q3 12 7.5 35t8 53.5t1.5 67.5t-9 76.5t-27 81.5t-49.5 80.5t-78 76.5t-111.5 67zM670 758z" />
    <glyph glyph-name="uniE62F" unicode="&#xe62f;" 
d="M826 465l-5 22q-4 13 -17 13h-63l-55 67q-8 10 -21 12q-158 9 -307 0q-13 -2 -21 -12l-55 -67h-63q-13 0 -17 -13l-5 -22q-1 -3 3 -5l37 -17l-15 -18q-14 -17 -13 -45v-181q0 -5 4 -9t9 -4h99q5 0 9 4t4 9v18h355v-18q0 -5 4 -9t9 -4h99q5 0 9 4t4 9v181q1 28 -13 45
l-15 18l37 17q4 2 3 5zM361 362q0 -6 -6 -6l-88 3q-9 1 -16 8t-7 16v19q0 3 2.5 5.5t6.5 2.5l87 -11q9 -1 15 -7t6 -14v-16zM651 515q-2 15 -13.5 23.5t-28 8.5t-28.5 -8.5t-13 -23.5q-1 -9 1 -24t6 -22q2 -5 7 -9q-129 3 -288 -6q-4 0 -5 2t1 4l67 84q4 5 11 6
q92 6 143.5 5.5t143.5 -5.5q7 -1 11 -6l67 -84q2 -2 1 -4t-5 -2q-53 3 -94 5q6 4 9 10q4 7 5.5 22t1.5 24zM779 383q0 -9 -7 -16t-16 -8l-88 -3q-6 0 -6 6v16q0 8 6 14t15 7l87 11q4 0 6.5 -2.5t2.5 -5.5v-19zM511.5 -63q-90.5 0 -173.5 35.5t-143 95.5t-95.5 143
t-35.5 173.5t35.5 173.5t95.5 143t143 95.5t173.5 35.5t173.5 -35.5t143 -95.5t95.5 -143t35.5 -173.5t-35.5 -173.5t-95.5 -143t-143 -95.5t-173.5 -35.5zM511.5 793q-110.5 0 -205 -54.5t-149 -149t-54.5 -205t54.5 -205t149 -149t205 -54.5t205 54.5t149 149t54.5 205
t-54.5 205t-149 149t-205 54.5z" />
    <glyph glyph-name="uniE630" unicode="&#xe630;" 
d="M147 -16q0 -16 -11 -26.5t-26 -10.5t-25.5 10.5t-10.5 26.5v800q0 16 10.5 26.5t25.5 10.5t26 -10.5t11 -26.5v-800zM110 -53q-15 0 -25.5 10.5t-10.5 26.5q0 15 10.5 25.5t25.5 10.5h810q16 0 26.5 -10.5t10.5 -25.5q0 -16 -10.5 -26.5t-26.5 -10.5h-810zM279 186
q-11 -11 -26 -11t-25 11q-11 10 -11 25t11 26l197 197q11 11 26 11t25 -11q11 -11 11 -25.5t-11 -25.5zM622 238q-10 -10 -25 -10t-26 10q-10 11 -10 26t10 25l242 242q11 11 26 11t25 -11q11 -10 11 -25t-11 -26zM621 289q11 -10 11 -25t-11 -26q-10 -10 -25 -10t-26 10
l-144 145q-11 11 -11 25.5t11 25.5q10 11 25 11t26 -11z" />
    <glyph glyph-name="uniE631" unicode="&#xe631;" 
d="M512 751q-92 0 -175.5 -35.5t-144 -96t-96 -144t-35.5 -175.5t35.5 -175.5t96 -144t144 -96t175.5 -35.5t175.5 35.5t144 96t96 144t35.5 175.5t-35.5 175.5t-96 144t-144 96t-175.5 35.5zM512 -95q-107 0 -198 53t-144 144t-53 198t53 198t144 144t198 53t198 -53
t144 -144t53 -198t-53 -198t-144 -144t-198 -53zM316 333q7 -1 35 -1q35 0 53 14.5t18 39.5q0 32 -22.5 46t-56.5 14q-80 0 -84 -76h-52q3 60 40 90t97 30q66 0 100 -29t34 -71q0 -27 -14 -47.5t-41 -27.5v-1q32 -5 51.5 -29t19.5 -58q0 -51 -36 -84t-106 -33
q-154 0 -154 124h52q2 -44 27 -62t70 -18q43 0 67.5 19t24.5 50t-25.5 48t-66.5 17q-11 0 -20.5 -0.5t-10.5 -0.5v46zM675 490q151 0 151 -190t-151 -190t-151 190t151 190zM675.5 446q-25.5 0 -44.5 -11.5t-28.5 -27t-15 -37.5t-6.5 -37.5t-1 -32.5t1 -32.5t6.5 -37.5
t15 -37.5t28.5 -27t44.5 -11.5t44 11.5t28 27t15.5 37.5t7 37.5t1 32.5t-1 32.5t-7 37.5t-15.5 37.5t-28 27t-44 11.5z" />
    <glyph glyph-name="uniE632" unicode="&#xe632;" 
d="M512 835q-92 0 -175.5 -36t-143.5 -96t-96 -143.5t-36 -175.5t36 -175.5t96 -143.5t143.5 -96t175.5 -36t175.5 36t143.5 96t96 143.5t36 175.5t-36 175.5t-96 143.5t-143.5 96t-175.5 36zM512 -31q-113 0 -208.5 55.5t-151 151t-55.5 208.5t55.5 208.5t151 151
t208.5 55.5t208.5 -55.5t151 -151t55.5 -208.5t-55.5 -208.5t-151 -151t-208.5 -55.5zM265 386q0 92 28 139t79 47q50 0 78 -47t28 -139q0 -94 -28 -142t-78 -48q-51 0 -79 48t-28 142zM449 386q0 79 -20.5 120.5t-56.5 41.5q-37 0 -57.5 -41.5t-20.5 -120.5
q0 -81 20.5 -123t57.5 -42q36 0 56.5 42t20.5 123zM713 541h-184v25h219v-17q-61 -81 -83 -156t-27 -190h-31q4 109 28 186t78 152z" />
    <glyph glyph-name="uniE633" unicode="&#xe633;" 
d="M505.5 827q-91.5 0 -174 -35.5t-142.5 -95.5t-95.5 -143t-35.5 -174t35.5 -174t95.5 -143t142.5 -95.5t173.5 -35.5q159 0 282 100l50 48q55 61 85.5 138t30.5 162q0 91 -35.5 174t-95.5 143t-142.5 95.5t-174 35.5zM399 675q4 4 12.5 10.5t37.5 16.5t62 10
q71 -1 111 -37v-111q-19 9 -56 14v52v3q0 2 -3 6.5t-8.5 8.5t-17 7t-27 3t-27 -3t-17 -7t-8.5 -8t-3 -7v-3v-52q-17 -2 -31 -5.5t-19 -6.5l-6 -2v111zM325 527l186 37l185 -37l19 -93l-204 55l-205 -55zM733 397v-130q-3 -5 -7.5 -11t-23.5 -16.5t-44 -10.5q-26 0 -63 25.5
t-66 29.5v163zM287 397l205 51v-164q-30 -4 -67.5 -29.5t-63.5 -25.5q-25 0 -43.5 9.5t-24.5 18.5l-6 10v130zM771 155l-17 -10q-11 -6 -40.5 -16.5t-54.5 -10.5q-23 0 -44.5 14t-47 28t-56.5 14q-25 0 -44.5 -9t-30.5 -19.5t-30 -19t-44 -8.5q-33 0 -61 9.5t-39 18.5l-11 9
q-5 2 -11 6t-16.5 18.5t-10.5 31.5q0 18 14 23t28 0l14 -5q1 -1 2.5 -3.5t9 -9t17 -11.5t26.5 -9t38 -4q25 0 44 9t30 19.5t30.5 19t44 8.5t44 -8.5t30.5 -19t30 -19.5t44 -9q21 0 38 4t27 9.5t16.5 11t9.5 9.5l2 3q2 1 6 2.5t13.5 3t17 1t13.5 -7t6 -17.5q0 -17 -9.5 -31
t-18.5 -19z" />
    <glyph glyph-name="uniE634" unicode="&#xe634;" 
d="M512.5 751q-91.5 0 -174.5 -35.5t-143 -95.5t-95 -143t-35 -174t35 -174t95 -143t143 -95.5t174.5 -35.5t174 35.5t142.5 95.5t95.5 143t35.5 174t-35.5 174t-95.5 143t-142.5 95.5t-174 35.5zM692 115q-4 -10 -23.5 -22t-61.5 -23t-95 -12q-58 -1 -113.5 18.5
t-61.5 38.5q-1 4 3 9t9 8l5 4v122l157 -90l164 90v-122q1 0 5.5 -3t8.5 -8t3 -10zM512 213l-317 167l317 167l318 -167z" />
    <glyph glyph-name="uniE635" unicode="&#xe635;" 
d="M777 618q-41 41 -102 41q-34 0 -65.5 -15t-54.5 -41l-42 -51l-42 51q-22 26 -54 41t-66 15q-60 0 -101 -41t-41 -103q0 -72 70 -158q23 -29 60 -67t66 -65t86 -79l7 -6l15 -14l15 14l7 6q57 52 86 79t66 65t61 67q70 86 70 158q0 62 -41 103zM513 836q-92 0 -176 -36
t-144.5 -96.5t-96.5 -144.5t-36 -176t36 -176t96.5 -144.5t144.5 -96.5t176 -36t176 36t144.5 96.5t96.5 144.5t36 176t-36 176t-96.5 144.5t-144.5 96.5t-176 36zM565 99l-52 -47l-52 47q-43 40 -60 55t-53 49t-50 49.5t-40.5 44t-37.5 45t-27.5 42t-22.5 44.5t-11.5 42
t-5.5 45q0 84 57.5 141.5t140.5 57.5q47 0 89.5 -20t72.5 -56q30 36 72.5 56t89.5 20q84 0 141 -57.5t57 -141.5q0 -22 -5.5 -45t-11.5 -42t-22.5 -44.5t-27 -42t-37.5 -45t-41 -44t-50 -49.5t-52 -49z" />
    <glyph glyph-name="uniE636" unicode="&#xe636;" 
d="M512.5 744q-90.5 0 -172.5 -35t-141.5 -94.5t-95 -142t-35.5 -172.5t35.5 -172.5t95 -142t141.5 -94.5t172.5 -35t172.5 35t141.5 94.5t94.5 142t35 172.5t-35 172.5t-94.5 142t-141.5 94.5t-172.5 35zM512 -85q-135 0 -241 85q155 13 244 71q84 -59 238 -72
q-106 -84 -241 -84zM812 59q-128 19 -187.5 55t-51.5 90v32h-122v-32q18 -109 -240 -143q-83 105 -83 239q0 104 51.5 193t140 140.5t192.5 51.5q85 0 160 -34.5t129 -95.5h-60v43h-99v-43h-56q-2 8 -2 27q-3 18 -3 26h-114q0 -8 2 -26q0 -19 3 -27h-72q11 21 13 29
q6 13 8 22h-111q-30 -91 -104 -123v-64q37 8 64 19v-90h109v170q3 2 5 10q8 10 13 19v-64h91q37 -135 154 -157h-377v-204h111v132h264v-132h111v204h-2q71 16 69 109h-83q3 -42 -40 -40q-66 -2 -93 88h202v68q93 -108 93 -251q0 -136 -85 -241z" />
    <glyph glyph-name="uniE637" unicode="&#xe637;" 
d="M962 46q0 -46 -33 -79t-79 -33h-676q-46 0 -79 33t-33 79v676q0 46 33 79t79 33h676q46 0 79 -33t33 -79v-676zM148 475v-288q0 -19 13.5 -32.5t31.5 -13.5h637q19 0 32.5 13.5t13.5 32.5v288h-728zM269 293h243v-30h-243v30zM269 384h364v-30h-364v30zM148 581v-45h728
v45q0 19 -13.5 32.5t-32.5 13.5h-637q-18 0 -31.5 -13.5t-13.5 -32.5zM148 581z" />
    <glyph glyph-name="uniE638" unicode="&#xe638;" 
d="M953 675h-61v-52h26v-53h-80v53h27v52h-134v-52h27v-53h-80v53h26v52h-160v-52h27v-53h-81v53h27v52h-161v-52h27v-53h-80v53h27v52h-161v-52h27v-53h-80v53h26v52h-61q-8 0 -13.5 -6t-5.5 -15v-540q0 -9 5.5 -15t13.5 -6h872q8 0 13.5 6t5.5 15v540q0 9 -5.5 15t-13.5 6
zM279 163l10 66l-9 17l19 9l17 -9l-9 -18l15 -65h-43zM491 163h-27q0 7 -0.5 24.5t-0.5 20.5q-2 7 -10 11t-20.5 7t-16.5 5q-6 2 -23 9t-26 11q-10 2 -13 3q-5 3 -14 22q-1 0 -4 0.5t-4 0.5q0 5 4 9.5t4.5 7t1 9.5t2.5 10q1 2 4.5 4t4.5 3q3 4 5 13q3 15 -1 23q-3 7 -4 9
q0 3 1 15l1 13q0 11 -2 22q-4 9 -9 12l-10 2l-6 5q-25 15 -66 -1q-36 -11 -24 -68q1 -4 -1.5 -8t-2.5 -6q3 -30 9 -34l7 -1q0 -4 1 -12.5t2 -12.5q0 -2 3.5 -6t4.5 -8l-6 -1q-9 -19 -14 -22q-2 0 -7 -1.5t-6 -1.5q-9 -4 -26 -11t-23 -9q-3 -2 -10.5 -4.5t-11.5 -4t-8.5 -5.5
t-6.5 -9v-20v-25h-27v303h376v-303zM570 438h348v-54h-348v54zM918 173h-347v52h347v-52zM918 278h-347v53h347v-53zM918 278z" />
    <glyph glyph-name="uniE639" unicode="&#xe639;" 
d="M846 647q-7 12 -10.5 14t-16.5 2h-174q-16 0 -21.5 -6t-5.5 -20v-39v-76v-73v-43q0 -17 4.5 -25t18.5 -11q131 -25 163 -32q13 -3 20.5 7.5t4.5 22.5t-16 14l-150 30v207h145l78 -179v-223h-2h-44q-8 39 -39 64.5t-71 25.5t-71 -25.5t-39 -64.5h-1h-225h-1
q-8 39 -39 64.5t-71 25.5t-71 -25.5t-39 -64.5h-46v446h402v-312h-111q-9 0 -15.5 -6.5t-6.5 -15.5t6.5 -15.5t15.5 -6.5h133q10 0 16.5 6.5t6.5 15.5v3v4v345q0 12 -6.5 19t-16.5 7h-442q-14 0 -19.5 -6t-5.5 -15v-52v-120v-138v-120v-56q-1 -28 25 -28l64 1
q8 -39 39 -64.5t71 -25.5t71 25.5t39 63.5h1h225h1q8 -38 39 -63.5t71.5 -25.5t71 25.5t38.5 64.5l69 -1q2 0 6 1t10 6.5t6 15.5v255l-19 46q-20 45 -41.5 94t-24.5 57zM283 128q-28 0 -47.5 19.5t-19.5 47t19.5 47.5t47.5 20t47.5 -20t19.5 -47.5t-19.5 -47t-47.5 -19.5z
M730 128q-28 0 -47.5 19.5t-19.5 47t19.5 47.5t47.5 20t47.5 -20t19.5 -47.5t-19.5 -47t-47.5 -19.5z" />
    <glyph glyph-name="uniE63A" unicode="&#xe63a;" 
d="M512 -48q-117 0 -216.5 58t-157.5 157.5t-58 216.5t58 216.5t157.5 157.5t216.5 58t216.5 -58t157.5 -157.5t58 -216.5t-58 -216.5t-157.5 -157.5t-216.5 -58zM512 784q-165 0 -282.5 -117.5t-117.5 -282.5t117.5 -282.5t282.5 -117.5t282.5 117.5t117.5 282.5
t-117.5 282.5t-282.5 117.5zM651 299q0 91 -124 115q-72 14 -68 42q3 33 52 35q42 0 56 -52l75 24q-19 82 -98 98v69h-64v-67q-92 -15 -98 -110q-5 -91 129 -114q61 -10 61 -40q0 -42 -59 -42q-51 -3 -68 68l-72 -21q27 -100 107 -114v-67h64v66q103 15 107 110z" />
    <glyph glyph-name="uniE63B" unicode="&#xe63b;" 
d="M766 232q0 9 -6 15t-15 6h-479q-9 0 -15.5 -6t-6.5 -15t6.5 -15.5t15.5 -6.5h239v-44h-65q-9 0 -15.5 -6t-6.5 -15t6.5 -15.5t15.5 -6.5h87q9 0 15.5 6.5t6.5 15.5v65h196q9 0 15 6.5t6 15.5zM745 602h-479q-9 0 -15.5 -6.5t-6.5 -15.5t6.5 -15.5t15.5 -6.5h152v-43h-108
q-9 0 -15.5 -6.5t-6.5 -15.5v-87q0 -9 6.5 -15.5t15.5 -6.5h391q9 0 15.5 6.5t6.5 15.5v87q0 9 -6.5 15.5t-15.5 6.5h-109v43h153q9 0 15 6.5t6 15.5t-6 15.5t-15 6.5zM418 428h-87v43h87v-43zM549 428h-87v43h87v-43zM549 515h-87v43h87v-43zM679 471v-43h-87v43h87z
M622 197q-9 3 -17.5 -1.5t-11 -13t2.5 -16.5t15 -11l100 -30q10 -2 18.5 2t11 13t-2.5 17t-15 10zM885 597q-5 8 -13.5 10.5t-16.5 -2t-10.5 -13t2.5 -16.5q39 -70 47 -148t-12 -149.5t-68 -134t-117.5 -101.5t-148 -47.5t-150 11.5t-134 68t-101.5 117.5t-47.5 148
t11.5 150t68 134t118 101.5q108 59 224 48.5t208 -81.5l1 1v-1q7 -5 16 -4t14.5 8t4 16t-8.5 15h-1q-102 79 -230.5 89.5t-248.5 -53.5q-77 -44 -130.5 -113.5t-75.5 -149t-12.5 -166.5t52.5 -164t112.5 -130.5t149 -76t166.5 -13t164.5 53t130.5 113t75.5 149t13 166.5
t-52.5 164zM701 297q9 0 15.5 6.5t6.5 15.5t-6.5 15.5t-15.5 6.5h-391q-9 0 -15.5 -6.5t-6.5 -15.5t6.5 -15.5t15.5 -6.5h391zM385 197l-101 -30q-9 -3 -14.5 -11t-3 -16.5t11 -12.5t18.5 -2l100 30q10 3 15 11t3 16.5t-10.5 13t-18.5 1.5z" />
    <glyph glyph-name="uniE63C" unicode="&#xe63c;" 
d="M960 -35h-895v672h895v-672zM904 21v560h-783v-560h783zM624.5 77q-92.5 0 -158 65.5t-65.5 158.5t65.5 158.5t158 65.5t158 -65.5t65.5 -158.5t-65.5 -158.5t-158 -65.5zM624.5 133q69.5 0 118.5 49t49 118.5t-49 119t-118.5 49.5t-118.5 -49.5t-49 -119t49 -118.5
t118.5 -49zM494 326l47 31l56 -84l111 112l40 -40l-112 -112l-48 -48l-38 57zM177 413v56h168v-56h-168zM177 273v56h168v-56h-168zM177 133v56h168v-56h-168z" />
    <glyph glyph-name="uniE63D" unicode="&#xe63d;" 
d="M511 837q-92 0 -175.5 -35.5t-144.5 -96.5t-96.5 -144.5t-35.5 -175.5t35.5 -176t96.5 -144.5t144.5 -96.5t175.5 -36t176 36t144.5 96.5t96.5 144.5t36 176t-36 175.5t-96.5 144.5t-144.5 96.5t-176 35.5zM896 399h-149q-1 44 -8.5 77t-23.5 79q9 4 18 9t14.5 8t15.5 10
t13 9t15 11.5t15 11.5q45 -50 66 -99t24 -116zM495 0q-16 14 -31 34.5t-21 31t-22 44.5t-19 41q2 0 10 2.5t10 3.5t8.5 3t9 2.5t8.5 2t9 1.5t8.5 1t10 1.5t10 1t11.5 0.5v-170h-2v0zM527 769q82 -68 127 -175q-2 0 -7 -2q-57 -20 -99 -21l-23 198h2zM574 764
q59 -9 114.5 -37.5t97.5 -69.5q-4 -3 -13.5 -10t-13.5 -10t-11.5 -8.5t-13.5 -9t-14 -7.5l-16 -8q-6 13 -13 25.5t-17.5 26.5t-17 22.5t-21.5 24.5t-19 21l-22 22q-18 17 -20 18zM497 769v-198q-21 1 -40 4.5t-28.5 6.5t-37.5 12q2 6 10.5 26t11 25.5t10 22.5t11.5 24
t12 20.5t14.5 21t16 17.5t18.5 18h2zM341 604q-45 19 -90 53q93 90 197 107q-68 -67 -107 -160zM380 545q28 -9 40.5 -13t33 -7.5t43.5 -4.5v-121h-148q1 42 8 72t23 74zM497 348v-127q-22 -1 -40.5 -4t-29 -6t-37.5 -12q-4 9 -13.5 30.5t-12 28.5t-7 23.5t-6.5 31.5t-2 35
h148zM448 5q-106 18 -187 87q44 30 91 49q37 -78 96 -136zM525 0l23 170q7 0 12.5 -0.5t12 -1.5t10 -1t10 -1.5t9 -2t10.5 -3.5l8 -2q2 -1 12 -4t11 -3q-44 -91 -116 -151h-2v0zM693 141q14 -6 24.5 -13.5t22 -18t21.5 -17.5q-81 -69 -187 -87q7 6 30.5 29t35.5 35t28 33
t25 39zM655 199q-27 9 -37.5 12t-29 6t-40.5 4v127h148q0 -20 -2 -35t-6.5 -31.5t-7 -23.5t-12 -28.5t-13.5 -30.5zM548 399v121q23 1 43.5 4.5t33 7.5t40.5 13q16 -44 23 -74t8 -72h-148zM232 614q49 -38 99 -59q-17 -46 -24.5 -79t-8.5 -77h-171q2 63 28 110.5t77 104.5z
M127 348h171q0 -18 2 -33.5t3.5 -25.5t7 -25t8 -21.5t10.5 -25.5t12 -28q-53 -20 -101 -55q-31 30 -47 48.5t-33 45t-24.5 55t-8.5 65.5zM783 134q-11 8 -25 20.5t-25.5 20.5t-28.5 14q4 9 12 28t10.5 25.5t8 21.5t7 25t3.5 25.5t2 33.5h149q-2 -37 -9.5 -65.5t-24.5 -55
t-33 -45t-46 -48.5z" />
    <glyph glyph-name="uniE63E" unicode="&#xe63e;" 
d="M669 728l16 -1q44 -1 44 -44v-383v-15q10 7 10 8q86 64 96 71q17 12 42 23q17 8 37 3t31 -19t11.5 -34.5t-11.5 -35.5q-22 -32 -67 -67q-44 -35 -142 -110q-8 -6 -8 -15q1 -54 1 -194q0 -44 -44 -44h-575q-43 0 -43 44v568q0 11 7 19q101 104 201 209q17 18 30 17h364z
M702 99q-9 -6 -10 -6q-102 -62 -116 -71q-19 -10 -49 -18q-17 -4 -28 6t-9 28q2 12 8 20q24 35 38 51q49 54 160 148q6 6 6 13q1 142 1 414q0 9 -4 13t-13 4h-368q-9 0 -9 -10q0 -11 -0.5 -86t0.5 -86q0 -20 -11.5 -32t-31.5 -12q-16 1 -162 1h-11v-11v-548q0 -12 3.5 -16
t16.5 -4h570q12 0 16 4t4 16v172zM785 295l-5 -3q-135 -108 -205 -179q-15 -16 -43 -50q-5 -5 -15 -23q0 -1 -1 -9l9 -1q5 1 9 3q63 30 69 34q70 40 184 128q3 2 48 37q-9 11 -16.5 20.5t-17.5 21.5t-16 21zM283 678q-1 0 -3 1l-1 -1l-1 -1l-1 -1l-1 -1v-1l-1 -1l-1 -1
l-1 -1l-1 -1l-2 -2l-1 -1l-1 -1l-1 -1l-1 -1l-1 -1l-1 -1l-1 -1l-1 -1v-1l-1 -1l-1 -1l-1 -1l-1 -1l-1 -1l-1 -1l-1 -1l-1 -1l-1 -1l-1 -1l-1 -1l-1 -1l-1 -1l-1 -1l-1 -1l-1 -1l-1 -1h-1v-1l-1 -1l-1 -1l-1 -1l-1 -1l-1 -1l-1 -1l-1 -1l-1 -1l-1 -1l-1 -1l-1 -1l-1 -1
l-1 -1l-1 -1l-1 -1l-1 -1l-1 -1l-1 -1l-1 -1v-1l-1 -1l-1 -1l-1 -1l-1 -1l-1 -1l-1 -1l-1 -1l-1 -1l-1 -1l-1 -1l-1 -1l-1 -1l-1 -1l-1 -1l-1 -1l-1 -1l-1 -1l-1 -1v-1l-1 -1l-1 -1l-1 -1l-1 -1l-1 -1l-1 -1l-1 -1l-1 -1l-1 -1l-1 -1l-1 -1l-1 -1l-1 -1l-1 -1l-1 -1l-1 -1
l-1 -1l-1 -1l-1 -1v-1l-1 -1l-1 -1l-1 -1l-1 -1l-1 -1l-1 -1l-1 -1l-1 -1l-1 -1l-1 -1l-1 -1l-1 -1l-1 -1l-1 -1l-1 -1l-1 -1l-1 -1l-1 -1l-1 -1v-1l-1 -1l-1 -1l-1 -1l-1 -1l-1 -1l-1 -1l-1 -1l-1 -1l-1 -1h-1l-1 -1l-1 -1l-1 -1l-1 -1l-1 -1l-1 -1l-1 -1l-1 -1l-1 -1
l-1 -1v-1l-1 -1l-1 -1l-1 -1l-1 -1l-1 -1l-1 -1l-1 -1l-1 -1l-1 -1l-1 -1l-1 -1l-1 -1l-1 -1l-1 -1l-1 -1l-1 -1l-1 -1l-1 -1l-1 -1l-1 -1l-1 -1l-1 -1v-1l-1 -1l-1 -1l-1 -1l-1 -1l-1 -1l-1 -1l-1 -1l-1 -1l-1 -1l-1 -1l-1 -1l-1 -1l-1 -1l-1 -1l-1 -1l-1 -1l-1 -1h12h144
q10 0 13 3t3 13q1 20 1 152v8zM805 311l1 -1l1 -1v-1l1 -1l1 -1l1 -1l1 -1v-1l1 -1l1 -1l1 -1l1 -1v-1l1 -1l1 -1l1 -1l1 -1v-1l1 -1l1 -1l1 -1v-1l1 -1l1 -1l1 -1l1 -1v-1l1 -1l1 -1l1 -1l1 -1v-1l1 -1l1 -1l1 -1l1 -1v-1l1 -1l1 -1l1 -1v-1l1 -1l1 -1l1 -1l1 -1v-1l1 -1
l1 -1l1 -1l1 -1v-1l1 -1l1 -1l1 -1v-1l1 -1l1 -1l1 -1l1 -1v-1l1 -1l1 -1l1 -1q41 37 45 41q14 13 25 28q6 8 5.5 19.5t-6 18.5t-16.5 10t-20 -1q-29 -12 -83 -53zM938 247l-8 -12q-57 -45 -139 -110q-12 -10 -20 1q-7 9 5 18q93 74 138 110q5 3 17 2zM617 412l1 -2
q2 -18 -0.5 -20.5t-20.5 -2.5q-312 0 -408 -1q-7 0 -10 2.5t-2 9.5v2q0 9 1.5 10.5t10.5 1.5h416h12zM178 300h440q0 -18 -1 -20q0 -5 -8 -5h-72h-345h-5q-7 0 -8.5 1.5t-1.5 10.5v3zM177 189h371v-24q-11 -1 -12 -1h-346q-9 0 -11 1.5t-2 11.5v12zM464 78v-25h-12h-262
q-10 0 -11.5 1.5t-1.5 11.5v12h287z" />
    <glyph glyph-name="uniE63F" unicode="&#xe63f;" 
d="M512 834q-122 0 -226 -60t-164 -164t-60 -226t60 -226t164 -164t226 -60t226 60t164 164t60 226t-60 226t-164 164t-226 60zM567 629q21 20 50 20t50 -20l24 -24q21 -19 21 -46.5t-21 -47.5l-30 -27l-125 119zM514 576l125 -120l-204 -192l-124 116zM234 310l51 50
l126 -116l-34 -33h-143v99zM765 124h-509q-9 0 -15.5 6.5t-6.5 15.5t6 15.5t16 6.5h507q8 0 15 -6t7 -16q0 -22 -20 -22zM765 207h-264q-9 0 -15.5 6.5t-6.5 15.5t6.5 15.5t15.5 6.5h264q8 0 15 -6t7 -16t-6.5 -16t-15.5 -6z" />
    <glyph glyph-name="uniE640" unicode="&#xe640;" 
d="M512 315h-158q-29 -1 -43 22t-1 49q17 32 82 156q13 25 41 25h157q29 0 42 -26q72 -136 81 -154q14 -25 0 -49.5t-44 -23.5q-13 1 -157 1zM754 27h-157q-30 -1 -43.5 22.5t-0.5 49.5q42 82 81 155q13 25 42 25q68 -1 157 0q28 0 41 -24q60 -114 82 -158q10 -20 3.5 -39.5
t-25.5 -27.5q-7 -3 -23 -3h-157zM270 27h-158q-30 -1 -43.5 22.5t-0.5 49.5q44 85 82 155q13 25 41 25q78 -1 157 0q28 0 42 -25q59 -112 81 -155q10 -21 3.5 -41t-25.5 -28q-7 -3 -23 -3h-156zM266 467q-10 50 -11 56q-2 11 -13 13q-25 4 -55 13q50 11 55 12q11 2 13 13
q5 29 13 56q10 -49 11 -57q2 -10 12 -12q31 -6 56 -14q-50 -10 -56 -12q-10 -1 -11.5 -11t-11.5 -56q-1 -1 -2 -1zM724 467q48 10 51 11q15 2 17 16q0 5 9 46q1 5 3 7q11 -55 12 -58q2 -8 9 -10q32 -6 57 -14q-48 -10 -56 -12t-10 -10q-1 -6 -12 -58q-2 4 -3.5 8.5
t-2.5 10.5t-2 9q-4 16 -6 31q-1 7 -9 9q-5 1 -57 12v1v1zM540 661q49 11 54 12q11 1 13 13q5 29 13 55q11 -53 12 -57q1 -10 11 -11q5 -1 57 -12q-5 -3 -10 -4t-11 -2t-9 -2q-17 -5 -29 -6q-7 -1 -9 -10q-7 -37 -14 -59q-10 50 -11 58q-2 9 -12 11q-6 1 -55 12v2z" />
    <glyph glyph-name="uniE641" unicode="&#xe641;" 
d="M380 227q0 -41 -28.5 -70t-69.5 -29t-69.5 29t-28.5 70t28.5 70t69.5 29t69.5 -29t28.5 -70zM435 -15q0 46 -32 78t-77 32h-88q-45 0 -76.5 -32t-31.5 -78v-44h305v44zM745 326q-41 0 -69.5 -29t-28.5 -70t28.5 -70t69.5 -29t69.5 29t28.5 70t-28.5 70t-69.5 29zM898 -15
q0 46 -32 78t-77 32h-88q-45 0 -76.5 -32t-31.5 -78v-44h305v44zM794 744v-264q0 -28 -19 -47t-46 -19h-25l14 -55q-7 1 -18 4.5t-35.5 17.5t-37.5 33h-189q-13 -19 -35.5 -33t-38.5 -18l-17 -4l14 55h-46q-27 0 -46.5 19t-19.5 47v264q0 27 19.5 46t46.5 19h414
q27 0 46 -19t19 -46zM594 682q-5 15 -19.5 27.5t-36.5 16.5v18q0 7 -5 12t-11.5 5t-11.5 -5t-5 -12v-19q-20 -4 -33.5 -19t-15.5 -35q-3 -23 12 -43.5t50 -27.5q19 -4 29 -13.5t8 -22.5q-1 -11 -10 -19t-23 -8q-34 0 -41 24q-3 6 -9 9t-12.5 1t-9.5 -8t0 -13q5 -15 19 -28
t36 -16v-19q0 -7 5 -11.5t11.5 -4.5t11.5 4.5t5 11.5v19q20 5 34 20t16 35q2 23 -13 43.5t-50 27.5q-19 4 -28.5 13.5t-8.5 21.5q1 11 10 19.5t24 8.5q33 0 41 -24q2 -6 8 -9t12.5 -1t9.5 8t1 13zM745 326q-41 0 -69.5 -29t-28.5 -70t28.5 -70t69.5 -29t69.5 29t28.5 70
t-28.5 70t-69.5 29zM898 -15q0 46 -32 78t-77 32h-88q-45 0 -76.5 -32t-31.5 -78v-44h305v44zM898 -15z" />
    <glyph glyph-name="uniE642" unicode="&#xe642;" 
d="M512 -12q-107 0 -198.5 53t-144.5 144.5t-53 199t53 198.5t144.5 144.5t198.5 53.5t198.5 -53.5t144.5 -144.5t53 -198.5t-53 -199t-144.5 -144.5t-198.5 -53zM512 831q-91 0 -173.5 -35.5t-142.5 -95t-95.5 -142.5t-35.5 -173.5t35.5 -173.5t95.5 -143t142.5 -95.5
t173.5 -35.5t173.5 35.5t142.5 95.5t95.5 143t35.5 173.5t-35.5 173.5t-95.5 142.5t-142.5 95t-173.5 35.5zM541 680v17q0 11 -8.5 17t-20.5 6t-20 -6t-8 -17v-17q-118 -11 -204.5 -96t-102.5 -206q32 35 67.5 44t55.5 5q38 -6 60 -18t47 -40q17 25 46 42t59 17
q27 0 55.5 -17.5t44.5 -43.5q17 22 35 35.5t36.5 18t25.5 5.5t21 1q65 -4 117 -47q-16 121 -102.5 205.5t-203.5 94.5zM483 352v-124q0 -8 -2 -16.5t-12.5 -19.5t-29.5 -11q-7 0 -15 2t-17.5 13t-10.5 30v17q0 12 -8 20t-20 8t-20 -8t-8 -20v-17q0 -37 25.5 -69.5t74 -32.5
t74 32.5t25.5 69.5v125q0 12 -8.5 20.5t-20 8.5t-19.5 -8t-8 -20z" />
    <glyph glyph-name="uniE643" unicode="&#xe643;" 
d="M962 301l-169 451h-189l74 -103h59l112 -347h-212l-57 -103h-141l-52 102h-213l113 348h58l74 103h-188l-169 -451v-285h900v285zM512 752l221 -256h-165v-235h-112v235h-165zM512 752z" />
    <glyph glyph-name="uniE644" unicode="&#xe644;" 
d="M513 829q-91 0 -174.5 -35.5t-143.5 -95t-95.5 -142.5t-35.5 -174t35.5 -174t95.5 -143t143.5 -95.5t174.5 -35.5t174 35.5t143.5 95.5t96 143t35.5 174t-35.5 174t-96 142.5t-143.5 95t-174 35.5zM344 502h36l4 19h39l-4 -19h58v-114q0 -7 7 -7h11v-36h-31q-27 0 -27 28
v95h-27l-14 -55h2h28v-31h-38l-4 -16q-4 -18 -15 -18h-41v32h20q3 0 5 6l5 22l-13 38h22l5 22h-28v34zM227 499h43v22h39v-22h28v-37h-28v-13h20v-35h-20v-40q0 -16 -10 -26q-7 -9 -22 -9h-41v35h27q7 0 7 16v5l-5 -4q-5 -4 -12 -4h-24v32h6q8 0 12 4l23 21v18h-43v37z
M496 248h-271v33h114v18h-110v32h110v12h44v-12h109v-32h-109v-18h113v-33zM530 511h50v12h41v-12h51v-34h-51v-17h43v-35h-130v35h46v17h-50v34zM662 413v-33h-124v33h124zM672 250h-17q-15 0 -20 18l-14 57h36l7 -34q1 -7 4 -7h4v-34zM675 334h-55v-70q0 -18 -23 -18h-29
v20q-6 -18 -24 -18h-18v29h7q4 0 6 8l8 40h34l-11 -48h7q5 0 5 6v51h-54v35h147v-35zM804 250h-23q-23 0 -26 25l-11 81l-9 -62q-7 -46 -35 -46h-23v35h10q7 0 11 24l15 118h41l-3 -17h25l18 -120q2 -8 8 -8h2v-30zM798 430h-42l4 47h-33l-5 -20q-7 -22 -32 -22h-18v35h4
q5 0 8 9l10 45h44l-3 -12h69z" />
    <glyph glyph-name="uniE645" unicode="&#xe645;" 
d="M733 415v10h-94v-16h87q7 0 7 6zM322 289v24h-53v-33h46q7 0 7 9zM513 829q-91 0 -174.5 -35.5t-143.5 -95t-95.5 -142.5t-35.5 -174t35.5 -174t95.5 -143t143.5 -95.5t174.5 -35.5t174 35.5t143.5 95.5t96 143t35.5 174t-35.5 174t-96 142.5t-143.5 95t-174 35.5z
M358 275q0 -25 -26 -25h-99v93h125v-68zM365 350h-44q-8 0 -14 5l-13 12l-14 -14q-5 -4 -14 -4h-41v33h29q6 0 12 5l3 2l-31 28h50l6 -5l20 18h-40q-5 -12 -23 -12h-24v30h13q4 0 6 3l8 19h-25v38h48v13h44v-13h42v-38h-37v10h-60v-10h22l-4 -10h79v-28l-43 -41l6 -5
q7 -5 15 -5h24v-31zM495 248h-28q-14 0 -20 13l-15 34l-17 -34q-6 -13 -18 -13h-30v34h15q6 0 9 5l22 44q1 4 1 6v82h36v-82q0 -3 1 -7l21 -43q4 -5 10 -5h13v-34zM496 483h-41l-3 -18h41v-141h-34v107h-54v-107h-33v141h39l3 18h-45v36h127v-36zM787 337l-70 -42l8 -5
q12 -6 26 -6h35v-33h-62q-13 0 -22 6l-24 15l-24 -14q-10 -7 -24 -7h-41v33h29q11 0 17 4l9 5l-52 33h66l23 -12l38 22h-129v32h197v-31zM801 478h-223v-21h22v16h39v-16h94v16h40v-16h24v-32h-24v-26q0 -22 -28 -22h-145v48h-22v-136q0 -39 -39 -39h-11v34h3q8 0 8 10v218
h111v12h47v-12h104v-34z" />
    <glyph glyph-name="uniE646" unicode="&#xe646;" 
d="M477 352q0 113 0.5 225t-0.5 225q-114 0 -210 -61t-150.5 -162.5t-54.5 -219.5q0 -117 58 -215t157.5 -154t217.5 -56t217 54t157 150t58 213zM962 387q0 88 -37.5 170.5t-99 143t-144.5 97t-171 36.5q3 0 0 -447q452 -1 452 0z" />
    <glyph glyph-name="uniE647" unicode="&#xe647;" 
d="M512.5 -147q-51.5 0 -116.5 33.5t-124 90.5q-66 62 -102 132.5t-36 135.5v350q0 13 9 22t22 9l35 1q72 1 145 31q78 32 128 68l21 15q18 13 36 0l21 -15q51 -37 128 -68q73 -30 146 -31l34 -1q13 0 22 -9t9 -22v-350q0 -65 -36 -135.5t-101 -132.5q-60 -57 -124.5 -90.5
t-116 -33.5zM197 564v-319q0 -52 31 -110.5t87 -112.5q50 -48 104 -77t93 -29t93 29t104 77q57 54 87.5 112.5t30.5 110.5v319h-3q-85 2 -169 36t-141 75l-2 2l-2 -2q-56 -40 -141 -75q-84 -34 -168 -36h-4zM471 165q-17 0 -29 12l-103 103q-12 12 -12 28t12 28t28.5 12
t27.5 -12l76 -75l178 178q12 12 28.5 12t28 -11.5t11.5 -28t-12 -28.5l-206 -206q-12 -12 -28 -12z" />
    <glyph glyph-name="uniE648" unicode="&#xe648;" 
d="M171 704h-64v64h256v-320l322 320h254l-768 -768v704z" />
    <glyph glyph-name="uniE649" unicode="&#xe649;" 
d="M742 289l-1 -1zM515 570h-2q-95 -1 -162 -69t-66 -163t68.5 -161.5t161.5 -66.5h2q95 1 162 69t66 163q-1 94 -68.5 161t-161.5 67zM408 197q-1 51 21 53q6 0 22.5 2t32 3.5t31.5 1.5q37 0 86 -6q9 -1 14 -5.5t7 -14t2.5 -15.5t0.5 -17zM641 383l-39 -111q-49 6 -87 6
q-7 0 -86 -7l-40 110q-10 0 -17.5 8t-7.5 18q0 11 8 19t18.5 8.5t18.5 -7.5t8 -19q0 -6 -6 -16l39 -44l15 78q-8 0 -14.5 8t-6.5 18q0 12 8.5 20.5t20 8.5t20 -8t8.5 -20q0 -17 -13 -23l27 -77h1l25 77q-11 9 -11 23q-1 12 7.5 20.5t20.5 8.5q11 0 19.5 -8.5t8.5 -19.5
q1 -20 -19 -27l14 -78l37 44q-6 7 -7 17q0 10 8 18t19 8t19 -7.5t8 -18.5q0 -10 -7 -18t-17 -9zM925 677l-75 64l-15 -8q-45 -22 -91 -31.5t-79.5 -8t-66 9.5t-47.5 14t-26 13l-14 7l-13 -7q-11 -7 -26 -13.5t-47 -15t-65.5 -10.5t-80 6.5t-91.5 29.5l-16 8l-73 -65l9 -18
q49 -97 50 -162q0 -14 -10 -67q-21 -113 -21 -176q2 -185 149 -234q177 -59 221 -122l22 -32l22 32q43 64 219 126q146 52 144 237q0 64 -24 176v1q-11 52 -11 65q0 65 47 163zM707 151.5q-78 -79.5 -190 -80.5h-2q-110 0 -189 78t-80 188q-1 112 77 191.5t190 80.5h2
q110 0 189 -78.5t80 -188.5q1 -111 -77 -190.5z" />
    <glyph glyph-name="uniE64A" unicode="&#xe64a;" 
d="M511 634q-62 0 -106 -44t-44 -106.5t44 -106.5t106 -44t106 44t44 106.5t-44 106.5t-106 44zM510.5 403q-33.5 0 -57 23.5t-23.5 57t23.5 57t57 23.5t57.5 -23.5t24 -57t-24 -57t-57.5 -23.5zM453 484q0 -24 17 -41t41 -17t41 17t17 40.5t-17 40.5t-41 17t-41 -17
t-17 -40zM901 676q-98 12 -209.5 51t-180.5 94q-70 -55 -181 -94t-209 -51q-1 -8 -1 -21.5t1.5 -56.5t6 -85.5t16 -102t29.5 -112t48 -110t69 -102.5t96 -82.5t125 -56.5q252 69 345 375q51 176 45 354zM644 103l-133 98l-134 -98v192l46 -15v-86l88 65l87 -64v85l46 16
v-193zM511 287q-81 0 -139 57.5t-58 139t58 139t139 57.5t138.5 -57.5t57.5 -139t-57.5 -139t-138.5 -57.5z" />
    <glyph glyph-name="uniE64B" unicode="&#xe64b;" 
d="M939 834h-854q-10 0 -16.5 -6.5t-6.5 -16.5v-854q0 -10 6.5 -16.5t16.5 -6.5h854q10 0 16.5 6.5t6.5 16.5v854q0 10 -6.5 16.5t-16.5 6.5zM354 184q-2 46 16 79h276q17 -31 18 -79h-310zM711 454l-65 -168h-276l-71 169q-16 0 -28 13t-12 30t13 30t30.5 13t30 -13
t12.5 -30q0 -10 -10 -26l70 -71l25 126q-13 0 -23 12.5t-10 29.5q0 19 13 32t32 13t32.5 -13.5t13.5 -31.5q0 -27 -21 -37l42 -124h2l40 124q-18 14 -18 37q0 19 13.5 32t32.5 13q18 0 31.5 -13.5t13.5 -31.5q0 -32 -31 -42l21 -126l59 70q-9 11 -9 27q0 17 12.5 29.5
t30 12.5t30 -12.5t12.5 -29.5t-11 -29t-27 -15z" />
    <glyph glyph-name="uniE64C" unicode="&#xe64c;" 
d="M125 802h774v-142h-774v142zM511.5 548q126.5 0 218.5 -89l157 172h-752l157 -172q93 89 219.5 89zM512 507q-115 0 -197 -81.5t-82 -197t82 -197t197 -81.5t197 81.5t82 197t-82 197t-197 81.5zM621 74l-109 57l-109 -57l21 121l-88 85l122 18l54 110l54 -110l122 -18
l-88 -85z" />
    <glyph glyph-name="uniE64D" unicode="&#xe64d;" 
d="M512 748q-91 0 -174 -35.5t-143 -95.5t-95.5 -143t-35.5 -174t35.5 -174t95.5 -143t143 -95.5t174 -35.5t174 35.5t143 95.5t95.5 143t35.5 174t-35.5 174t-95.5 143t-143 95.5t-174 35.5zM512 -112q-112 0 -207 55t-150 150t-55 207t55 207t150 150t207 55t207 -55
t150.5 -150t55.5 -207t-55.5 -207t-150.5 -150t-207 -55zM810 418l-2 2q-18 17 -44 17q-24 0 -42 -16q-8 -7 -13 -16l-108 10l-44 97q3 3 7 9q10 15 10 33q0 25 -18 42t-43.5 17t-44 -17.5t-18.5 -41.5q0 -19 10 -33q3 -4 7 -9l-43 -97l-109 -10q-4 8 -11 15l-2 1
q-18 16 -41 16q-26 0 -45 -17q-18 -18 -18 -43t18 -42q19 -18 45 -18q12 0 24 5h1l2 1l82 -70l-24 -102q-19 -3 -33 -17q-19 -18 -19 -42q0 -25 19 -43q18 -17 43.5 -17t44 17.5t18.5 42.5q0 4 -1 8l94 54l95 -54q-1 -5 -1 -8q0 -25 18 -42v-1q18 -17 44 -17t44 17.5
t18 42.5q0 23 -16 40l-2 2q-14 14 -33 17l-24 102l82 70l2 -1q11 -5 25 -5q26 0 44 17.5t18 42.5q0 24 -16 41zM271 368h-1q-2 -2 -4 -3h-1q-2 -1 -4 -1q-6 0 -10 4q-4 3 -4 9t4 10t10 4q4 0 9 -4q4 -3 4.5 -8t1.5 -7q-2 -1 -5 -4zM512 567q6 0 10 -4t4 -9t-2 -8
q-2 -4 -6 -5q-5 -2 -6 -3q-1 2 -5 3q-4 2 -6 5q-2 4 -2 8q0 5 3.5 9t9.5 4zM356.5 78q-5.5 0 -9.5 4t-4 9.5t4 10.5q4 3 10 3q1 0 4 -0.5t5 -0.5q2 -3 3 -5v-1q2 -3 2 -6q0 -6 -4.5 -10t-10 -4zM656 98l3 6q4 0 6 1h2h1q6 0 10 -3l1 -1q3 -5 3 -9q0 -6 -4 -10h-1
q-4 -4 -9 -4q-6 0 -10 4v1q-4 3 -4 9q0 2 1 3q0 1 1 2v1zM613 279q-12 -9 -8 -24l27 -116l-107 62q-13 7 -25 -1l-107 -61l27 118q3 13 -8 22l-94 80l125 11q14 2 20 14l49 111l50 -111q5 -12 20 -14l124 -11zM774 368q-4 -4 -10 -4q-3 0 -6 1q-2 1 -4 3q-3 3 -5 4q1 4 2 6
v1q0 4 4 8q5 4 9.5 4t9.5 -4l1 -1q3 -4 3 -9q0 -6 -4 -9z" />
    <glyph glyph-name="uniE64E" unicode="&#xe64e;" 
d="M510 642q-97 0 -179.5 -47.5t-130 -130t-47.5 -179.5t47.5 -179t130 -130t179.5 -48t179 48t130 130t48 179t-48 179.5t-130 130t-179 47.5zM653 99l-143 75l-143 -75l27 159l-115 112l159 23l72 145l71 -145l160 -23l-116 -112zM505 669q151 0 263 -103l126 163l-768 -2
l121 -156q111 98 258 98zM120 846h779v-95h-779v95z" />
    <glyph glyph-name="uniE64F" unicode="&#xe64f;" 
d="M623 261q-7 0 -13 4q-46 34 -88 29q-10 -1 -17 4.5t-8 15t4.5 17t15.5 8.5q43 4 87 -18q14 70 90 100q-39 68 -1 146q-87 23 -107 92q-32 -18 -66 -20q-9 0 -16 6t-7.5 15.5t6 16.5t15.5 7q35 2 71 32q10 9 23 3t13 -20q1 -15 4.5 -27.5t13.5 -26.5t32.5 -24.5
t55.5 -15.5q12 -1 17 -12.5t-2 -21.5q-53 -83 1 -148q8 -9 4 -21t-16 -15q-92 -23 -89 -103q0 -14 -12 -21q-5 -2 -11 -2zM407 261q-6 0 -11 2q-12 7 -12 21q3 80 -89 103q-12 4 -15.5 15.5t3.5 20.5q53 65 1 148q-6 10 -1 21.5t17 12.5q32 5 54.5 15.5t32.5 25t14 26.5
t4 27q1 14 13.5 20t23.5 -3q35 -30 71 -32q9 0 15 -7t5.5 -16.5t-7 -15.5t-16.5 -6q-33 2 -66 21q-21 -70 -106 -93q36 -78 -2 -146q76 -30 90 -100q44 22 88 18q9 -1 15 -8.5t5 -16.5t-8.5 -15t-16.5 -5q-43 5 -89 -29q-6 -4 -13 -4zM683 83q-11 0 -17 9l-78 98
q-6 7 -5 16.5t8.5 15t16.5 4.5t15 -8l38 -48v78q0 9 6.5 15.5t16 6.5t16 -6.5t6.5 -15.5v-142q0 -16 -15 -22q-4 -1 -8 -1zM347 83q-4 0 -7 1q-15 6 -15 22v142q0 9 6.5 15.5t16 6.5t16 -6.5t6.5 -15.5v-78l38 48q5 7 14.5 8t17 -4.5t8.5 -15t-5 -16.5l-78 -98q-7 -9 -18 -9
zM514 -61q-185 1 -316 132t-131 316t131 315q131 132 316 132t316 -132q131 -130 131 -315t-131 -316t-316 -132zM514 781q-164 0 -278 -116q-117 -115 -117 -278t116 -279q115 -115 279 -116q163 1 279 116q116 116 116 279t-116 278q-116 116 -279 116z" />
    <glyph glyph-name="uniE650" unicode="&#xe650;" 
d="M793 -66h-562q-70 0 -119.5 49.5t-49.5 119.5v562q0 70 49.5 119.5t119.5 49.5h562q70 0 119.5 -49.5t49.5 -119.5v-562q0 -70 -49.5 -119.5t-119.5 -49.5zM722 612l-52 -57q27 -16 27 -49q0 -86 -156 -305q-19 99 -51 226q-29 113 -51 149t-62 36q-49 0 -80 -50
q-26 -41 -27 -63q-1 -12 12 -14q21 71 67 71q28 0 45 -36q17 -37 48 -159q36 -144 50 -257l62 61q11 23 14 29l17 29q15 26 17 30l30 46l40 62q86 137 86 190q0 41 -36 61z" />
    <glyph glyph-name="uniE651" unicode="&#xe651;" 
d="M448 742l-105 35l-26 -111l-104 -25l32 -108l-81 -76l80 -77l-32 -107l106 -26l30 -111h46v-182l128 103l127 -103v182h45l28 111l107 27l-32 108l81 75l-82 77l32 107l-105 26l-23 109l-106 -34l-73 83zM697 458q0 -75 -53 -127.5t-128 -52.5t-128 52.5t-53 127.5
t53 128t128 53t128 -53t53 -128z" />
    <glyph glyph-name="uniE652" unicode="&#xe652;" 
d="M824 104l56 -109l-60 -5l-39 -46l-55 107q-17 -3 -35.5 -3t-35.5 3l-55 -107l-39 46l-59 5l55 109q-53 55 -53 131q0 78 55 133t132 55t131.5 -55t54.5 -133q0 -76 -53 -131zM787 296q-6 6 -14.5 6t-14.5 -6l-97 -97l-50 50q-6 6 -14.5 6t-14.5 -6t-6 -14t6 -14l65 -65
q6 -6 14.5 -6t14.5 6l111 111q6 6 6 14.5t-6 14.5zM716 507q-11 0 -23 -1v249l-324 -107v33l357 130l107 -91v-240q-4 3 -10 5q-52 22 -107 22zM611 608v-122h-1l-1 -1q-49 -20 -87 -59q-31 -31 -50 -69v242l-271 -87v-505h-47v530l361 128zM423 436l-170 -46v77l170 56v-87
zM423 295l-170 -33v73l170 44v-84zM423 152l-170 -17v73l170 28v-84zM423 9h-170v76l170 12v-88z" />
    <glyph glyph-name="uniE653" unicode="&#xe653;" horiz-adv-x="1092" 
d="M875 834q14 -3 15 -3q56 -17 70 -75q3 -12 3 -24v-572q0 -7 -1 -8t-8 -1h-23q-3 0 -4 1t-1 4v5v559q0 30 -18 50.5t-47 25.5q-8 2 -21 2h-661q-35 0 -57 -23q-21 -20 -22 -47q-2 -25 -2 -53v-624q0 -34 21 -56q20 -20 46 -24q11 -1 21 -1h566q6 0 7.5 -1t1.5 -8
q-1 -2 -2 -27h-613l-2 1q-53 9 -76 63q0 1 -6 21v728l1 2q2 18 11 34q17 31 47 42q1 1 29 9h725zM890 -66q114 160 131 182v18q-5 5 -8 7q-5 4 -13 2.5t-11 -6.5q-4 -5 -10 -13.5t-8 -10.5q-65 -90 -74 -102q-1 -2 -23 -31q-17 12 -18 13q-60 44 -72 52q-9 6 -20 1
q-9 -5 -9 -24q0 -2 1 -4t2 -2.5t4 -1.5l2 -2q17 -13 49 -35.5t41 -29.5l16 -13h20zM455 619h-190q-8 0 -10.5 -2.5t-2.5 -10.5v-16v-16q-1 -10 -3 -17q-54 -129 -99 -235q-5 -11 2 -22q11 -18 39 -28q64 -22 132 -3q29 8 44 24q14 14 7 32q-18 41 -93 220q-1 1 -6 15h188
v-429h-7q-74 0 -83 -1q-8 0 -10.5 -2t-2.5 -10v-34q0 -10 11 -10q148 -1 263 0q11 0 11 11v32q0 8 -2.5 10.5t-10.5 2.5q-9 1 -73 1h-7v429h182q-2 -7 -3 -7q-78 -186 -96 -229q-6 -15 3 -27q14 -18 45 -27q46 -15 98 -7q45 7 68 27q17 15 11 29q-76 180 -86 206
q-21 48 -18 80q1 9 -1.5 11.5t-11.5 2.5h-183h-9v74q0 8 -2.5 10.5t-10.5 2.5h-58q-12 0 -14.5 -2t-2.5 -14v-71h-8zM327 347h-130q19 46 65 155q10 -21 65 -155zM811 347h-130q25 57 65 155l1 -1v-1l1 -1v-1l1 -1v-1v-1l1 -1v-1l1 -1v-1l1 -1v-1v-1l1 -1v-1l1 -1v-1l1 -1
v-1v-1l1 -1v-1l1 -1v-1v-1l1 -1v-1l1 -1v-1l1 -1v-1v-1l1 -1v-1l1 -1v-1l1 -1v-1v-1l1 -1v-1l1 -1v-1v-1l1 -1v-1l1 -1v-1l1 -1v-1v-1l1 -1v-1l1 -1v-1l1 -1v-1v-1l1 -1v-1l1 -1v-1v-1l1 -1v-1l1 -1v-1l1 -1v-1v-1l1 -1v-1l1 -1v-1l1 -1v-1v-1l1 -1v-1l1 -1v-1v-1l1 -1v-1
l1 -1v-1l1 -1v-1v-1l1 -1v-1l1 -1v-1v-1l1 -1v-1l1 -1v-2l1 -1v-1l1 -1v-1v-1l1 -1v-1l1 -1v-1l1 -1v-1v-1l1 -1v-1l1 -1v-1v-1l1 -1v-1l1 -1v-1l1 -1v-1v-1l1 -1v-1l1 -1v-1v-1l1 -1v-1l1 -1v-1l1 -1v-1v-1l1 -1v-1l1 -1v-1v-1l1 -1v-1l1 -1v-1l1 -1v-1v-1l1 -1v-1l1 -1v-1
l1 -1v-1v-1z" />
    <glyph glyph-name="uniE654" unicode="&#xe654;" 
d="M483 161l229 350h7l-4 -16l-239 -383h-11l-146 276l-52 -29l-5 16l84 47zM484 98h-27l-144 270l-54 -29l-15 43l107 59l134 -253l219 337h33l-8 -35zM330 397l141 -266l6 10l-137 261zM487 93h-33l-143 269l-55 -31l-18 53l115 64l131 -248l231 386h54v-5zM337 395
l134 -253l-133 254zM495 79h-50l-140 263l-57 -31l-27 80l138 76l126 -238l222 371h76v-23l-2 -3zM462 107h17l268 465h-24l-240 -401l-135 257l-92 -50l8 -26l53 29zM470 114l-11 21l-141 265l26 15l144 -274zM512 -61q-90 0 -172.5 35t-142.5 95t-95 142.5t-35 172.5
t35 172.5t95 142.5t142.5 95t172.5 35t172.5 -35t142.5 -95t95 -142.5t35 -172.5t-35 -172.5t-95 -142.5t-142.5 -95t-172.5 -35zM512 787q-109 0 -202 -54t-147 -147t-54 -202t54 -202t147 -147t202 -54t202 54t147 147t54 202t-54 202t-147 147t-202 54z" />
    <glyph glyph-name="uniE655" unicode="&#xe655;" 
d="M525 187l-67 -1v167h111q44 46 83 62h-194v162h-72v-391h-124v264h-67v-264h-88v-63h436q-3 4 -5.5 11t-3.5 13l-2 5q-4 23 -7 35zM417 687q68 -75 140.5 -125t163.5 -93q12 32 45 60q-95 38 -170.5 85.5t-140.5 119.5q16 22 17 24l-62 29q-53 -81 -144.5 -149.5
t-195.5 -109.5q29 -25 48 -58q179 82 299 217zM856.5 288.5q-6.5 6.5 -15 6.5t-14.5 -7l-114 -114l-44 44q-6 6 -15 6t-15 -6t-6 -15t6 -15l55 -55q6 -6 17 -6h1h2q11 0 17 6l126 125q6 7 6 15.5t-6.5 15zM747.5 6q-84.5 0 -144.5 60t-60 144.5t60 144.5t144.5 60t144.5 -60
t60 -144.5t-60 -144.5t-144.5 -60zM748 377q-69 0 -118 -48.5t-49 -117.5t49 -118t118 -49t118 49t49 118t-49 117.5t-118 48.5z" />
    <glyph glyph-name="uniE656" unicode="&#xe656;" 
d="M512 196q-87 0 -160.5 42.5t-116 116t-42.5 160t42.5 160t116 116.5t160.5 43t160.5 -43t116 -116.5t42.5 -160t-42.5 -160t-116 -116t-160.5 -42.5zM512 778q-109 0 -186 -77t-77 -186t77 -186t186 -77t186 77t77 186t-77 186t-186 77zM512 352q-67 0 -114.5 48
t-47.5 115t47.5 114.5t114.5 47.5t114.5 -47.5t47.5 -114.5t-47.5 -115t-114.5 -48zM512 621q-44 0 -75 -31t-31 -75t31 -75t75 -31t75 31t31 75t-31 75t-75 31zM695 -62l-152 292l204 118l150 -288l-144 17zM617 208l72 -138l29 67l80 -9l-74 142zM329 -62l-58 139
l-144 -17l150 288l204 -118zM306 137l29 -67l72 138l-107 62l-74 -142z" />
    <glyph glyph-name="uniE657" unicode="&#xe657;" 
d="M960 689v15h-162q1 31 1.5 63t-0.5 48v17h-285h-2h-2h-286q-2 -59 1 -128h-161v-41v-1v-22q4 -108 45 -193q44 -92 126 -151q67 -49 152 -70q46 -49 93 -62v-71q-2 -9 -5.5 -18t-17 -23.5t-33.5 -25t-57 -18.5t-85 -8h-26v-64h512v64h-26q-41 0 -73.5 5.5t-53 14t-35 19
t-21.5 21t-10.5 19.5t-4.5 14v6v65q46 13 92 61q85 21 153 71q82 59 126 151q22 44 32.5 96.5t11.5 80t1 65.5zM167 475q-35 71 -39 165h101q3 -29 7 -52q29 -170 85 -270q-104 53 -154 157zM857 475q-50 -105 -155 -158q56 100 85 271q4 23 6 52h103q-4 -94 -39 -165z" />
    <glyph glyph-name="uniE658" unicode="&#xe658;" 
d="M810.5 339q-24.5 0 -42 -17.5t-17.5 -42t17.5 -42t42 -17.5t42 17.5t17.5 42t-17.5 42t-42 17.5zM874 183q24 16 38 41.5t14 55.5q0 47 -33.5 81t-81.5 34t-82 -34t-34 -81q0 -31 14.5 -56.5t39.5 -41.5l-54 -180l52 12l36 -38l35 117l63 -122l29 44l52 -2zM916 279
q0 -24 -9 -45l-23 11q7 16 7 34q0 4 -2 12l25 5q2 -11 2 -17zM861 372q20 -11 34 -29l-20 -16q-11 15 -26 23zM811 385h6l-2 -26h-4q-16 0 -30 -5l-9 23q18 8 39 8zM734 352l18 -18q-12 -12 -18 -29l-24 8q8 22 24 39zM720 224q-12 20 -15 44l25 2q2 -17 11 -33zM751 191
l1 2zM793 174q-13 3 -26 9l-15 10l13 19q15 -10 32 -13zM810.5 205q-30.5 0 -52 21.5t-21.5 52t21.5 52.5t52 22t52 -22t21.5 -52.5t-21.5 -52t-52 -21.5zM832 201q17 5 31 16l16 -19q-18 -15 -40 -21zM673 271q0 59 41.5 100.5t101.5 41.5q29 0 56 -11v252h-810v-500h671
q-28 20 -44 50.5t-16 66.5zM196 605h542v-19h-542v19zM596 569v-51h-40v51h40zM538 569v-51h-39v51h39zM481 569v-51h-39v51h39zM420 569v-51h-40v51h40zM358 569v-51h-39v51h39zM196 504h542v-19h-542v19zM621 430h-308v7h308v-7z" />
    <glyph glyph-name="uniE659" unicode="&#xe659;" horiz-adv-x="1392" 
d="M782 480h353v-61h-353v61zM890 32l-3 3h-693q-21 0 -35 14t-14 34v641q0 21 14 36.5t35 15.5h987q21 0 35 -14t14 -35v-384l3 -3q26 -16 43 -37l12 -15v451q0 39 -28 67t-67 28h-1015q-39 0 -67 -28t-28 -67v-671q0 -39 28 -66.5t67 -27.5h752l-10 12q-12 15 -30 46z
M782 346h105v-61h-105v61zM782 611h353v-61h-353v61zM1104 337q-85 0 -143.5 -58.5t-58.5 -143.5q0 -82 60 -141.5t142 -59.5q85 0 144 58.5t59 142.5q0 85 -59.5 143.5t-143.5 58.5zM1101 13q-7 -7 -18.5 -7t-21.5 7l-85 86q-7 7 -7 18.5t7 18t18.5 6.5t20.5 -7l68 -67
l132 128q7 7 18.5 7t21.5 -7q7 -6 7 -17.5t-7 -18.5zM474 301q-64 0 -109.5 46t-45.5 110.5t45.5 110t109.5 45.5t109 -45.5t45 -110t-45 -110.5t-109 -46zM474 562q-43 0 -73 -31t-30 -74t30 -74t72.5 -31t73 31t30.5 74t-30.5 74t-72.5 31zM680 227q-15 0 -22 13l-85 139
q-5 9 -2.5 19.5t11.5 16t19.5 3t16.5 -12.5l84 -139q6 -9 3 -19.5t-12 -15.5q-6 -4 -13 -4zM680 227q-3 0 -6 1l-85 22q-10 2 -15.5 11.5t-3 19.5t12 15.5t19.5 2.5l84 -21q11 -3 16.5 -12t2.5 -19q-5 -20 -25 -20zM573 177q-4 0 -8 1q-10 4 -15 13t-2 19l23 72
q3 10 12.5 15t19.5 2t15 -12.5t2 -19.5l-22 -72q-6 -18 -25 -18zM573 177q-15 0 -22 13l-69 120q-5 9 -2.5 19.5t12 15.5t19.5 2.5t16 -12.5l68 -119q6 -10 3 -20t-12 -15q-6 -4 -13 -4zM268 227q-8 0 -14 4q-9 5 -11.5 15.5t3.5 19.5l84 139q6 10 16 12.5t19.5 -3t12 -16
t-3.5 -19.5l-84 -139q-8 -13 -22 -13zM268 227q-20 0 -25 20q-3 10 2.5 19t15.5 12l85 21q10 3 19 -2.5t12 -15.5t-2.5 -19.5t-15.5 -11.5l-85 -22q-3 -1 -6 -1zM375 177q-19 0 -25 18l-23 72q-3 10 2 19.5t15.5 12.5t20 -2t12.5 -15l22 -71q3 -11 -2 -20t-15 -13
q-4 -1 -7 -1zM374 177q-6 0 -12 4q-10 5 -12.5 15t2.5 20l69 119q5 10 15.5 12.5t19.5 -2.5t12 -15.5t-2 -19.5l-69 -120q-7 -13 -23 -13z" />
    <glyph glyph-name="uniE65A" unicode="&#xe65a;" 
d="M512 831q-94 0 -173 -46.5t-125.5 -126t-46.5 -173t46.5 -173t125.5 -125.5t173 -46t173 46t125.5 125.5t46.5 173t-46.5 173t-125.5 126t-173 46.5zM512 172q-130 0 -221.5 92t-91.5 222t91.5 221.5t221.5 91.5t221.5 -91.5t91.5 -221.5t-91.5 -222t-221.5 -92zM512 784
q-123 0 -210.5 -87.5t-87.5 -210.5t87.5 -210.5t210.5 -87.5t210.5 87.5t87.5 210.5t-87.5 210.5t-210.5 87.5zM512 204q-117 0 -199.5 82.5t-82.5 199.5t82.5 199.5t199.5 82.5t199.5 -82.5t82.5 -199.5t-82.5 -199.5t-199.5 -82.5zM653 -16l-141 79l-141 -79v176l-31 12
v-235l172 94l172 -94v235q-12 -4 -31 -11v-177zM355 517v-47l126 -110l203 189v47l-203 -189z" />
    <glyph glyph-name="uniE65B" unicode="&#xe65b;" 
d="M512 831q-94 0 -173 -46.5t-125.5 -126t-46.5 -173t46.5 -173t125.5 -125.5t173 -46t173 46t125.5 125.5t46.5 173t-46.5 173t-125.5 126t-173 46.5zM512 172q-130 0 -221.5 92t-91.5 222t91.5 221.5t221.5 91.5t221.5 -91.5t91.5 -221.5t-91.5 -222t-221.5 -92zM512 784
q-123 0 -210.5 -87.5t-87.5 -210.5t87.5 -210.5t210.5 -87.5t210.5 87.5t87.5 210.5t-87.5 210.5t-210.5 87.5zM512 204q-117 0 -199.5 82.5t-82.5 199.5t82.5 199.5t199.5 82.5t199.5 -82.5t82.5 -199.5t-82.5 -199.5t-199.5 -82.5zM653 -16l-141 79l-141 -79v176l-31 12
v-235l172 94l172 -94v235q-12 -4 -31 -11v-177zM355 517v-47l126 -110l203 189v47l-203 -188z" />
    <glyph glyph-name="uniE65C" unicode="&#xe65c;" 
d="M628 -8q0 20 -13.5 34t-33.5 15h-223q-21 0 -35.5 -14.5t-14.5 -35t14.5 -35t35.5 -14.5h223v1q20 1 33.5 15t13.5 34zM854 543l-272 272q-11 10 -25.5 10.5t-24.5 -10.5l-361 -353q-11 -10 -11 -24.5t10 -25.5l121 -124v2l166 -144h32q98 86 123 106l7 6v1
q-14 24 -25 48l-102 -102q-8 -9 -19.5 -9t-19.5 8l-211 217q-8 8 -7.5 19.5t8.5 19.5l289 282q8 9 19.5 9t19.5 -8l211 -209q8 -8 7.5 -19.5t-8.5 -19.5l-84 -84q6 -13 24 -51l132 133q11 10 11 25t-10 25zM308 252v-167q2 -3 5 -8t17.5 -13t34.5 -8h213q14 -3 26 9
q98 93 140 135q24 23 0 70l-66 142q-1 1 -2 3t-5.5 5.5t-9.5 5.5t-14 1.5t-19 -5.5q-26 -11 -32 -25t-3 -39q2 -13 13 -36.5t21 -40.5l10 -17q1 -17 -9 -22q-4 -3 -37.5 -31t-64.5 -55l-30 -27h-45zM303 451l167 44l-48 48l23 24l57 -57l32 32l-57 57l24 23l56 -57l47 47
l29 -29l-46 -47l58 -59l-23 -23l-59 59l-32 -32l59 -59l-23 -24l-51 51l-44 -167l-33 33q36 121 48 152h-1q-12 -5 -52 -17l-99 -30z" />
    <glyph glyph-name="uniE65D" unicode="&#xe65d;" 
d="M955 385.5q0 -90.5 -35 -172.5t-94.5 -141.5t-141.5 -94.5t-172.5 -35t-173 35t-141.5 94.5t-94.5 141.5t-35.5 172.5t35.5 172.5t94.5 141.5t141.5 94.5t173 35t172.5 -35t141.5 -94.5t94.5 -141.5t35 -172.5zM243 312q38 13 77 26v-153q0 -27 -23 -27q-20 0 -51 4
q5 -28 7 -48h55q54 0 54 61v177q30 10 61 19q-2 26 -1 44q-31 -10 -60 -19v110h68v40h-68v109h-42v-109h-75v-40h75v-124q-43 -13 -82 -24zM475 361q27 -89 88 -148q-71 -46 -173 -68q12 -16 24 -39q107 26 183 79q70 -51 175 -74q12 21 28 42q-102 17 -169 59
q70 61 108 150v39h-289v-40h25zM706 511v122h-209v-60q0 -88 -74 -128q16 -16 30 -34q87 53 86 162v20h125v-88q0 -62 65 -62h59q4 21 10 41h-63q-29 0 -29 27zM597 237q-58 49 -81 124h176q-34 -73 -95 -124z" />
    <glyph glyph-name="uniE65E" unicode="&#xe65e;" 
d="M690.5 -57q-103.5 0 -177 73.5t-73.5 177.5t73.5 177t177 73t177 -73t73.5 -177t-73.5 -177.5t-177 -73.5zM690.5 382q-77.5 0 -132.5 -55t-55 -133t55 -133t132.5 -55t133 55t55.5 133t-55.5 133t-133 55zM774 131h-129l24 -41q4 -7 -13 -16.5t-21 -2.5q-49 73 -49 81v1
l1 1v2q3 17 20 17h5h5h157q9 0 15 -6t6 -15t-6 -15t-15 -6zM794 232q-3 -17 -20 -17h-5q-2 -1 -4 0h-158q-8 0 -14.5 6t-6.5 14.5t6.5 14.5t14.5 6h130l-25 41q-4 8 13 17.5t22 2.5q48 -74 48 -81v-2v-1q0 -1 -1 -1zM670 611q8 0 14.5 -6t6.5 -14.5t-6.5 -14.5t-14.5 -6
h-105q-8 0 -14 6t-6 14.5t6 14.5t14 6h105zM252 236h105q8 0 14.5 -6.5t6.5 -15t-6.5 -14.5t-14.5 -6h-105q-8 0 -14.5 6t-6.5 14.5t6.5 15t14.5 6.5zM461 465q9 0 15 -6t6 -14.5t-6 -15t-15 -6.5h-83v-83q0 -9 -6.5 -15t-15 -6t-14.5 6t-6 15v83h-84q-8 0 -14.5 6.5
t-6.5 15t6.5 14.5t14.5 6h84v84h-84q-8 0 -14.5 6t-6.5 14.5t6.5 14.5t14.5 6h21v42q0 9 6 15t15 6t15 -6t6 -15v-42h83v42q0 9 6.5 15t15 6t14.5 -6t6 -15v-42h21q9 0 15 -6t6 -14.5t-6 -14.5t-15 -6h-83v-84h83zM774 716q0 17 -12 29t-30 12h-542q-18 0 -30 -12t-12 -29
v-606q0 -17 12 -29t30 -12h237q16 -35 40 -63h-298q-35 0 -59.5 24.5t-24.5 58.5v648q0 34 24.5 58.5t59.5 24.5h584q35 0 59.5 -24.5t24.5 -58.5v-290q-30 17 -63 27v242z" />
    <glyph glyph-name="uniE65F" unicode="&#xe65f;" 
d="M512 496q-28 0 -47.5 -19.5t-19.5 -47.5v-269q0 -28 19.5 -48t47.5 -20t47.5 20t19.5 48v269q0 28 -19.5 47.5t-47.5 19.5zM512 833q-91 0 -174.5 -35.5t-143.5 -95.5t-95.5 -143.5t-35.5 -174.5t35.5 -174.5t95.5 -143.5t143.5 -95.5t174.5 -35.5t174.5 35.5t143.5 95.5
t95.5 143.5t35.5 174.5t-35.5 174.5t-95.5 143.5t-143.5 95.5t-174.5 35.5zM512 2q-104 0 -191.5 51.5t-139 139t-51.5 191.5t51.5 191.5t139 139t191.5 51.5t191.5 -51.5t139 -139t51.5 -191.5t-51.5 -191.5t-139 -139t-191.5 -51.5zM512 676q-28 0 -47.5 -20t-19.5 -47.5
t19.5 -47.5t47.5 -20t47.5 20t19.5 47.5t-19.5 47.5t-47.5 20z" />
    <glyph glyph-name="uniE660" unicode="&#xe660;" 
d="M657 545h5l5 47v2q0 4 -1.5 5.5t-5.5 1.5q-5 0 -6.5 -1.5t-1.5 -5.5v-3zM535.5 89q-20.5 0 -36 13.5t-17.5 33.5h-32q3 -33 27.5 -55.5t58 -22.5t57.5 22.5t27 55.5h-31q-3 -20 -18 -33.5t-35.5 -13.5zM512 834q-92 0 -175 -35.5t-143.5 -96t-96 -143.5t-35.5 -175
t35.5 -175t96 -143.5t143.5 -96t175 -35.5t175 35.5t143.5 96t96 143.5t35.5 175t-35.5 175t-96 143.5t-143.5 96t-175 35.5zM512 -35q-114 0 -210.5 56t-152.5 152.5t-56 210.5t56 210.5t152.5 152.5t210.5 56t210.5 -56t152.5 -152.5t56 -210.5t-56 -210.5t-152.5 -152.5
t-210.5 -56zM659.5 524q3.5 0 5.5 2t2 5t-2 5.5t-5.5 2.5t-5.5 -2.5t-2 -5.5t2 -5t5.5 -2zM824 272q-1 0 -8 1.5t-15.5 5.5t-19.5 11.5t-21 22t-18.5 35t-13 53t-4.5 73.5q1 16 -1 31q22 25 22 57q0 36 -25 61t-61 25q-17 0 -33 -7q-11 5 -22 8q1 7 1 14q0 32 -22.5 55
t-55 23t-55 -23t-22.5 -55q0 -5 1 -10q-27 -7 -49 -18.5t-43 -32t-32.5 -53.5t-10.5 -75q1 -41 -4 -74t-14 -53.5t-19.5 -36t-22 -23.5t-21 -12.5t-16.5 -6.5l-7 -2q-20 -18 -4 -74q8 -27 30 -41t39 -15h18h450h9q5 0 18.5 3t24.5 8.5t22.5 17.5t16.5 29q8 25 4.5 42.5
t-7.5 25t-9 10.5zM659.5 617q22.5 0 38.5 -16t16 -38.5t-16 -38.5t-38.5 -16t-38.5 16t-16 38.5t16 38.5t38.5 16zM527 710q20 0 33 -12t14 -30h-93q2 18 15 30t31 12zM799 198q-6 -14 -15.5 -22t-15.5 -8l-7 -1h-482q-22 3 -33 29q-5 11 -6 21.5t0.5 16t3.5 6.5l9 4
q9 3 17.5 8t21.5 14.5t23.5 26t20 38t15 55t5.5 73.5q-1 44 12 77t35.5 51t44 27.5t45.5 13.5v1h6q10 1 17 1q43 -1 77 -14q-19 -24 -19 -54q0 -35 25 -60t60 -25q13 0 25 4q1 -11 1 -22q-1 -55 10 -96.5t27 -63t32 -34t29 -18.5t14 -7q10 -20 2 -42z" />
    <glyph glyph-name="uniE661" unicode="&#xe661;" 
d="M511 -65l-22 12q-174 97 -265 201q-114 130 -114 284v2l25 350l373 50h3h1h2l374 -50l25 -350v-2q0 -154 -114 -284q-91 -104 -266 -201zM200 431q0 -109 76.5 -205t234.5 -188q159 92 235.5 188t76.5 205l-20 274l-292 39l-292 -39zM397 531h119v23h-136v-276h-98v54h11
v353h448l-24 -45h-337v-35h136v22h88v-22h137v-51h-137v-23h119v-166h-82v120h-162v-120h-82v166zM726 278q-109 3 -166 50q-57 -47 -166 -50v62q67 5 96.5 22.5t29.5 53.5v49h79v-49q0 -35 30 -53t97 -23v-62z" />
    <glyph glyph-name="uniE662" unicode="&#xe662;" 
d="M803 830h-585q-19 0 -33 -13.5t-14 -32.5v-800q0 -19 14 -32.5t33 -13.5h585q19 0 33 13.5t14 32.5v800q0 19 -14 32.5t-33 13.5zM802 30q0 -18 -13 -31t-32 -13h-492q-18 0 -31 13t-13 31v708q0 19 13 31t31 12h492q19 0 32 -12t13 -31v-708zM712 112h-64
q-10 0 -17 -8.5t-7 -20.5t7 -20.5t17 -8.5h64q9 0 16 8.5t7 20.5t-7 20.5t-16 8.5zM542 248h-64q-10 0 -17 -8.5t-7 -20.5t7 -20.5t17 -8.5h64q10 0 17 8.5t7 20.5t-7 20.5t-17 8.5zM542 384h-64q-10 0 -17 -8.5t-7 -20.5t7 -20.5t17 -8.5h64q10 0 17 8.5t7 20.5t-7 20.5
t-17 8.5zM373 384h-64q-9 0 -16.5 -8.5t-7.5 -20.5t7.5 -20.5t16.5 -8.5h64q10 0 17 8.5t7 20.5t-7 20.5t-17 8.5zM542 112h-64q-10 0 -17 -8.5t-7 -20.5t7 -20.5t17 -8.5h64q10 0 17 8.5t7 20.5t-7 20.5t-17 8.5zM712 248h-64q-10 0 -17 -8.5t-7 -20.5t7 -20.5t17 -8.5h64
q9 0 16 8.5t7 20.5t-7 20.5t-16 8.5zM373 248h-64q-9 0 -16.5 -8.5t-7.5 -20.5t7.5 -20.5t16.5 -8.5h64q10 0 17 8.5t7 20.5t-7 20.5t-17 8.5zM698 703h-373q-16 0 -27.5 -11.5t-11.5 -27.5v-58q0 -16 11.5 -27.5t27.5 -11.5h373q16 0 27 11.5t11 27.5v58q0 16 -11 27.5
t-27 11.5zM697 589l-7 -3h-42q-4 1 -6 2l-1 6v82q0 5 2 6l6 1h40q5 1 7 -2l2 -5v-81q0 -4 -1 -6zM373 112h-64q-9 0 -16.5 -8.5t-7.5 -20.5t7.5 -20.5t16.5 -8.5h64q10 0 17 8.5t7 20.5t-7 20.5t-17 8.5zM712 500h-64q-10 0 -17 -8.5t-7 -20.5t7 -20.5t17 -8.5h64
q9 0 16 8.5t7 20.5t-7 20.5t-16 8.5zM712 384h-64q-10 0 -17 -8.5t-7 -20.5t7 -20.5t17 -8.5h64q9 0 16 8.5t7 20.5t-7 20.5t-16 8.5z" />
    <glyph glyph-name="uniE663" unicode="&#xe663;" 
d="M512 833q-91 0 -174.5 -35.5t-143.5 -95.5t-95.5 -143.5t-35.5 -174.5t35.5 -174.5t95.5 -143.5t143.5 -95.5t174.5 -35.5t174.5 35.5t143.5 95.5t95.5 143.5t35.5 174.5t-35.5 174.5t-95.5 143.5t-143.5 95.5t-174.5 35.5zM512 -53q-89 0 -170 35t-139 93t-93 139
t-35 170t35 170t93 139t139 93t170 35t170 -35t139 -93t93 -139t35 -170t-35 -170t-93 -139t-139 -93t-170 -35zM638 357h-31v-100h96v33h-65v67zM673 434l-308 69l7 31l308 -69zM512 763q-103 0 -190.5 -50.5t-138 -138t-50.5 -190.5t50.5 -190.5t138 -138t190.5 -50.5
t190.5 50.5t138 138t50.5 190.5t-50.5 190.5t-138 138t-190.5 50.5zM502 311l-126 28l7 31l132 -30q-8 -14 -13 -29zM386 385l7 31l162 -36q-17 -11 -30 -26zM622.5 175q-40.5 0 -69.5 29t-29 69.5t29 69.5t69.5 29t69.5 -29t29 -69.5t-29 -69.5t-69.5 -29zM730 474
l-24 -106q-35 32 -83 32q-5 0 -10 -1l-259 58l-27 -123l171 -39q-2 -10 -2 -21q0 -14 3 -27l-203 45q-10 2 -16 11.5t-4 20.5l54 240q2 11 11.5 17t20.5 3l348 -77q11 -3 17 -12.5t3 -20.5z" />
    <glyph glyph-name="uniE664" unicode="&#xe664;" 
d="M64 618v-70h896v70h-896zM502 194l-17 47l-20 71h-24l-20 -71l-17 -47l-10 -24h118zM64 -18h896v495h-896v-495zM701 383h188q10 0 17 -7t7 -17t-7 -17t-17 -7h-188q-10 0 -17 7t-7 17t7 17t17 7zM701 265h188q10 0 17 -7t7 -17t-7 -17t-17 -7h-188q-10 0 -17 7t-7 17
t7 17t17 7zM701 147h188q10 0 17 -7t7 -17t-7 -16.5t-17 -6.5h-188q-10 0 -17 6.5t-7 16.5t7 17t17 7zM323 170h24v71h37l10 71h24v47h70v-47h24l10 -71h37v-71h24v-94h-47v47h-165v-47h-48v94zM135 170h47v-47h71v71h-71v47h71v71h-71v-24h-47v47h47v24h71v-47h47v-71h-47
v-47h47v-71h-47v-47h-71v47h-47v47z" />
    <glyph glyph-name="uniE665" unicode="&#xe665;" 
d="M955 301l-212 159v-106h-213v-106h213v-106zM489 301l-212 159v-106h-212v-106h212v-106zM845 20q0 -23 -16.5 -39.5t-39.5 -16.5h-559q-23 0 -39.5 16.5t-16.5 39.5v56h-111v-56q0 -70 49 -119t118 -49h559q70 0 119 49t49 119v56h-112v-56zM789 747h-559
q-69 0 -118 -49.5t-49 -118.5v-49h111v49q0 23 16.5 39.5t39.5 16.5h559q23 0 39.5 -16.5t16.5 -39.5v-49h112v49q0 69 -49 118.5t-119 49.5z" />
    <glyph glyph-name="uniE666" unicode="&#xe666;" 
d="M62 762v-773h900v773h-900zM911 39h-798v661h798v-661zM301 458h-104v99h101v-99h3zM835 495h-500v20h503v-20h-3zM301 301h-104v98h101v-98h3zM835 337h-500v20h503v-20h-3zM301 143h-104v99h101v-99h3zM835 183h-500v19h503v-19h-3z" />
    <glyph glyph-name="uniE667" unicode="&#xe667;" 
d="M546 55q-89 0 -171 -2l482 184q39 14 56 52t2 76l-126 333q-11 29 -36.5 46.5t-56.5 17.5q-19 0 -36 -6l-530 -202q-39 -14 -56 -52t-2 -76l126 -333q10 -28 35 -45q-120 -8 -120 -17q0 -11 126.5 -18t306.5 -7t307 7t127 17.5t-127 17.5t-307 7zM109 486q10 24 34 33
l531 201q10 4 22 4q35 0 53 -31l-644 -244q-4 19 4 37zM145 341l646 245l88 -234q10 -24 -0.5 -47.5t-34.5 -32.5l-531 -201q-23 -9 -47 2t-32 34zM261 297q2 0 3 1l463 175q8 3 5 11.5t-12 5.5l-462 -176q-8 -3 -5 -11q2 -6 8 -6zM271 254q2 -6 8 -6q2 0 4 1l462 176
q8 3 5 11t-11 5l-463 -176q-8 -3 -5 -11zM290 205q2 -5 8 -5h3l463 176q8 3 5 11t-12 5l-462 -175q-8 -3 -5 -12zM308 157q2 -6 8 -6q2 0 3 1l463 175q8 3 5 11.5t-11 5.5l-463 -176q-8 -3 -5 -11z" />
    <glyph glyph-name="uniE668" unicode="&#xe668;" 
d="M902 608v0v1q-4 6 -11.5 8t-14.5 -1.5t-9 -11.5t2 -14h1v-1q54 -95 54 -205q0 -112 -55 -207t-150 -150t-207 -55t-207 55t-150 150t-55 207t55 207t150 150t207 55q110 0 205 -55v0h1q6 -3 13.5 -1t11.5 8.5t2 14t-9 11.5q-104 60 -224 60q-91 0 -174.5 -35.5t-144 -96
t-96 -144t-35.5 -175t35.5 -174.5t96 -143.5t144 -96t175 -35.5t174.5 35.5t143.5 96t96 143.5t35.5 175q0 120 -60 224zM753 187h-106v17h106l58 36v-18zM647 218v15h106l58 44v-17l-58 -42h-106zM647 247v17h106l58 46v-17l-58 -46h-106zM650 277l52 47h109l-62 -47h-99z
M616 350q-35 0 -59 24t-24 58.5t24 58.5t58.5 24t58.5 -24t24 -58.5t-24 -58.5t-58 -24zM630 462q0 -1 1 -1t1 -2h12q0 11 -9 16q-6 5 -13 5v15h-11v-15q-1 0 -5 -1q-6 -2 -10 -6t-5 -8q-2 -5 -2 -11q0 -9 4.5 -15t16.5 -10l5 -1v-31q-7 1 -9 6h-1q-1 0 -2 3h-16
q-1 -5 0.5 -8.5t3 -4.5t6.5 -4q7 -5 14 -6v-16h10v16q8 1 16 6q11 7 11 22.5t-8 22.5q-7 5 -19 9v24q7 -1 9 -5zM605 456q0 5 2.5 7.5t8.5 2.5v-21q-5 1 -7 3q-4 3 -4 8zM633 409q0 -7 -4 -10q-2 -1 -7 -2v29q5 -2 7 -4q4 -3 4 -13zM513 278h-103l54 45h104zM512 248h-105
v16h105v-16zM387 413h-91q-19 0 -19 14q0 16 19 16h91q19 0 19 -16q0 -14 -19 -14zM387 472h-91q-19 0 -19 15q0 16 19 16h91q19 0 19 -16q0 -15 -19 -15zM350 517h-92q-8 0 -13 4.5t-5 12.5q0 14 18 14h92q18 0 18 -14q0 -8 -5.5 -12.5t-12.5 -4.5zM332 308q8 0 13.5 -4.5
t5.5 -11.5q0 -15 -19 -15h-91q-18 0 -18 15q0 7 5 11.5t13 4.5h91zM259 264h92q18 0 18 -14q0 -8 -5 -12.5t-13 -4.5h-92q-18 0 -18 15q0 16 18 16zM259 218h92q18 0 18 -14q0 -8 -5 -12.5t-13 -4.5h-92q-18 0 -18 15q0 7 5.5 11.5t12.5 4.5zM369 338q0 -14 -18 -14h-92
q-18 0 -18 14.5t18 14.5h92q18 0 18 -15zM278 367q-19 0 -19 15.5t19 15.5h91q18 0 18 -15.5t-18 -15.5h-91zM512 218h-105v15h105v-15zM512 187h-105v17h105v-17zM592 322h85l-59 -47l-1 -88h-75l1 88z" />
    <glyph glyph-name="uniE669" unicode="&#xe669;" 
d="M148 579h65v-31h-65v31zM248 579h65v-31h-65v31zM345 579h64v-31h-64v31zM799 244q0 68 -49 116.5t-117.5 48.5t-117 -48.5t-48.5 -117t48.5 -117t117.5 -48.5q66 0 114 45l119 -104l15 17l-119 104q37 45 37 104zM633 108q-56 0 -95.5 40t-39.5 95.5t39.5 95.5t95.5 40
t95.5 -40t39.5 -95.5t-39.5 -95.5t-95.5 -40zM149 341h205v-30h-205v30zM149 258h205v-30h-205v30zM149 173h205v-30h-205v30zM61 664v-725h901v725h-901zM931 633v-146h-839v146h839zM92 -30v486h839v-486h-839zM720 313l-116 -115l-54 54l-21 -22l76 -75l21 22l115 114z
" />
    <glyph glyph-name="uniE66A" unicode="&#xe66a;" 
d="M148 664h65v-31h-65v31zM249 664h65v-31h-65v31zM346 664h65v-31h-65v31zM633 162q63 0 110 42l143 -126l20 23l-142 125q35 45 35 102q0 68 -49 116.5t-117.5 48.5t-117 -48.5t-48.5 -117t48.5 -117t117.5 -48.5zM633 463q56 0 95.5 -40t39.5 -95.5t-39.5 -95.5
t-95.5 -40t-95.5 40t-39.5 95.5t39.5 95.5t95.5 40zM149 425h205v-30h-205v30zM149 342h205v-30h-205v30zM579 241l57 58l56 -58l22 21l-57 59l57 59l-22 21l-56 -58l-57 58l-22 -21l57 -59l-57 -59zM149 257h205v-30h-205v30zM61 748v-725h901v725h-901zM931 571h-839v146
h839v-146zM931 540v-486h-839v486h839z" />
    <glyph glyph-name="uniE66B" unicode="&#xe66b;" 
d="M478 138h262v-68l222 137l-222 138v-69h-262v-138zM266 371q-68 0 -116 -48t-48 -115.5t48 -115.5t115.5 -48t115.5 48t48 115.5t-48 115.5t-115 48zM190 288q-2 3 -1 8q0 4 3 6.5t8 2.5q5 -1 8 -5l59 -62l56 60q3 4 8 6q4 1 8 -2q3 -3 4 -7q0 -5 -3 -9l-63 -68v-9h52
q4 0 7 -3t3 -8t-3 -7.5t-7 -2.5h-52v-13h53q9 0 9 -8q0 -9 -9 -9h-53v-49q0 -4 -3 -7q-4 -4 -8 -3q-4 0 -7 3t-3 7v49h-52q-9 0 -9 9q0 8 9 8h52v13h-53q-5 0 -8 3q-3 4 -3 8t3 7t8 3h53v9zM265.5 348q58.5 0 100 -41t41.5 -99.5t-41.5 -100t-100 -41.5t-99.5 41.5t-41 100
t41 99.5t99.5 41zM548 633h-262v69l-222 -137l222 -138v69h262v137zM752 728q-67 0 -115 -48t-48 -115.5t48 -115.5t115.5 -48t115.5 48t48 115.5t-48 115.5t-116 48zM677 645q-2 3 -2 8q1 5 4 7.5t8 1.5t7 -5l59 -62l56 60q4 5 8 6q5 1 8 -2q4 -3 4 -7q1 -5 -2 -9l-63 -68
v-8h51q4 0 7.5 -3t3.5 -8t-3.5 -8t-7.5 -3h-51v-13h52q9 0 9 -8q0 -9 -9 -9h-52v-49q0 -4 -4 -7q-3 -3 -7 -3t-7.5 3t-3.5 7v49h-52q-9 0 -9 9q0 8 9 8h52v13h-53q-4 0 -7 3q-3 4 -3 8t2 8q3 3 8 3h53v9zM752.5 706q58.5 0 99.5 -41.5t41 -100t-41 -100t-99.5 -41.5
t-100 41.5t-41.5 100t41.5 100t100 41.5z" />
    <glyph glyph-name="uniE66C" unicode="&#xe66c;" 
d="M736 608h-338v-56h338v56zM736 412h-338v-56h338v56zM736 216h-338v-56h338v56zM63 832v-896h898v896h-898zM905 -8h-786v784h786v-784zM342 216h-54v-56h54v56zM342 412h-54v-56h54v56zM342 608h-54v-56h54v56z" />
    <glyph glyph-name="uniE66D" unicode="&#xe66d;" 
d="M952 358q-31 40 -106 -4q4 18 -8 29.5t-31 11.5q-41 0 -66 -25q-23 27 -47 26t-68 -29q-36 -21 -56 -33l-10 -5q11 -2 18 -2q26 0 39 -0.5t33 -2.5t30 -6t21 -11.5t15.5 -20t4.5 -29.5q0 -25 -17.5 -41.5t-37.5 -22t-40 -5.5h-148q-27 0 -57.5 16t-46.5 31l-17 16
q71 -29 121 -29h148q2 0 7 0.5t14.5 2.5t18 5.5t15 10.5t6.5 16q0 22 -20 28.5t-89 6.5q-27 0 -57 9t-47 18l-17 8q-61 45 -80 57q-21 13 -27 16.5t-24.5 12t-30.5 8.5t-32.5 -2.5t-42.5 -11.5q-49 -19 -157 -69l99 -219l51 32q21 14 36 15t43 -12q160 -83 169 -87
q20 -10 38 -14t30 -4.5t27 4.5t21.5 8.5t21.5 13t19 11.5q23 13 150 96.5t150 99.5q60 42 34 76zM585 543v-37h-51v-15h51v-36h-51v-40h-41v40h-50v36h50v15h-50v37h31l-47 92h46l30 -63q7 -15 9 -19q1 5 8 19l30 63h47l-48 -92h36zM512 694q-70 0 -119.5 -49.5
t-49.5 -119.5t49.5 -119.5t119.5 -49.5t119.5 49.5t49.5 119.5t-49.5 119.5t-119.5 49.5z" />
    </font>
</defs>
</svg>
